<?xml version="1.0" encoding="utf-8"?>
<!-- Generator: Adobe Illustrator 27.0.0, SVG Export Plug-In . SVG Version: 6.00 Build 0)  -->
<svg version="1.1" xmlns="http://www.w3.org/2000/svg" xmlns:xlink="http://www.w3.org/1999/xlink" x="0px" y="0px"
	 viewBox="0 0 189.58 137.06" style="enable-background:new 0 0 189.58 137.06;" xml:space="preserve">
<style type="text/css">
	.st0{fill:url(#SVGID_1_);}
	.st1{fill:url(#SVGID_00000176734393966979366380000012166376867815344014_);}
	.st2{fill:url(#SVGID_00000018195276290182162560000015144756340835753604_);}
	.st3{fill:url(#SVGID_00000140701281201854395030000004946002985521005443_);}
	.st4{fill:#FFFFFF;}
	.st5{fill:url(#SVGID_00000142156901082874490990000008410518639158295205_);}
	.st6{fill:url(#SVGID_00000059272839189292140760000007688660058741158287_);}
	.st7{fill:url(#SVGID_00000109026529221396571480000016189911521085337013_);}
	.st8{fill:url(#SVGID_00000177455770055953289830000016982963590796873383_);}
	.st9{fill:url(#SVGID_00000080203506434238739320000005679339558825664914_);}
	.st10{fill:url(#SVGID_00000097484102038500212780000002113224342450464155_);}
	.st11{opacity:0.5;}
	.st12{fill:url(#SVGID_00000146458768505535491040000012972084403395777469_);}
	.st13{fill:url(#SVGID_00000122694116748268523650000015735485666986706326_);}
	.st14{fill:url(#SVGID_00000106857013462715424200000006990813921919368072_);}
	.st15{fill:url(#SVGID_00000155828597458370011440000003656283782633474440_);}
</style>
<g id="Gold">
</g>
<g id="Blue">
	<linearGradient id="SVGID_1_" gradientUnits="userSpaceOnUse" x1="94.0478" y1="56.2413" x2="172.1968" y2="56.2413">
		<stop  offset="0" style="stop-color:#947238"/>
		<stop  offset="0.5049" style="stop-color:#EBC56E"/>
		<stop  offset="1" style="stop-color:#947238"/>
	</linearGradient>
	<path class="st0" d="M172.2,72.3c0-25.87-20.97-46.92-46.73-46.92c-11.79,0-22.81,4.31-31.42,12.2v1.65
		c8.5-8.16,19.56-12.63,31.42-12.63c25.1,0,45.52,20.5,45.52,45.71c0,5.07-0.82,10.05-2.44,14.81h1.27
		C171.38,82.34,172.2,77.37,172.2,72.3"/>
	
		<linearGradient id="SVGID_00000168808549652883827670000015311582880841768874_" gradientUnits="userSpaceOnUse" x1="17.3808" y1="91.9635" x2="87.3008" y2="91.9635">
		<stop  offset="0" style="stop-color:#947238"/>
		<stop  offset="0.5049" style="stop-color:#EBC56E"/>
		<stop  offset="1" style="stop-color:#947238"/>
	</linearGradient>
	<path style="fill:url(#SVGID_00000168808549652883827670000015311582880841768874_);" d="M87.3,112.18
		c-7.18,4.77-15.57,7.29-24.25,7.29c-24.1,0-44.45-19.75-44.45-43.12c0-3.09,0.2-8.62,1.37-13.11H18.7
		c-1.07,4.29-1.32,9.38-1.32,13.11c0,24.03,20.91,44.34,45.67,44.34c8.66,0,17.02-2.46,24.25-7.08V112.18z"/>
	
		<linearGradient id="SVGID_00000000215845861036414470000008216719520041966208_" gradientUnits="userSpaceOnUse" x1="97.6048" y1="118.3356" x2="173.2753" y2="100.4866">
		<stop  offset="0" style="stop-color:#947238"/>
		<stop  offset="0.1478" style="stop-color:#B9954F"/>
		<stop  offset="0.2882" style="stop-color:#D4AF60"/>
		<stop  offset="0.4117" style="stop-color:#E5BF6A"/>
		<stop  offset="0.5049" style="stop-color:#EBC56E"/>
		<stop  offset="0.6006" style="stop-color:#E6C06B"/>
		<stop  offset="0.7139" style="stop-color:#D8B362"/>
		<stop  offset="0.8361" style="stop-color:#C09C53"/>
		<stop  offset="0.9638" style="stop-color:#9F7C3F"/>
		<stop  offset="1" style="stop-color:#947238"/>
	</linearGradient>
	<path style="fill:url(#SVGID_00000000215845861036414470000008216719520041966208_);" d="M168.67,94.61
		c0.57-0.18,1.1-0.61,1.45-1.37c0.53-1.15,0.12-1.9-0.54-2.21c-0.91-0.42-1.5,0.29-2.01,0.91c-0.38,0.47-0.71,0.88-1.1,0.7
		c-0.36-0.17-0.45-0.6-0.23-1.08c0.21-0.46,0.57-0.84,1.07-1.01l-0.3-0.59c-0.56,0.2-1.01,0.62-1.31,1.28
		c-0.41,0.89-0.18,1.75,0.52,2.07c0.87,0.4,1.43-0.3,1.93-0.9c0.39-0.48,0.74-0.91,1.19-0.7c0.31,0.14,0.55,0.55,0.23,1.24
		c-0.27,0.6-0.77,0.93-1.22,1.07L168.67,94.61z M165.45,95.14c0.43,0.25,0.53,0.73,0.27,1.17l-0.6,1.02l-1.42-0.83l0.6-1.02
		C164.55,95.04,165.02,94.89,165.45,95.14 M168.65,96.13l-2.23,0.09c0.24-0.56,0.13-1.28-0.6-1.7c-0.75-0.44-1.56-0.2-2.01,0.57
		l-1,1.71l4.06,2.37l0.36-0.61l-1.57-0.91l0.45-0.76l2.13-0.06L168.65,96.13z M164.01,100.53l-1.11,1.54l-1.47-2.22L164.01,100.53z
		 M166.1,100.36l-4.91-1.24l-0.52,0.72l2.72,4.27l0.45-0.63l-0.57-0.88l1.35-1.87l1.01,0.26L166.1,100.36z M162.55,105.01
		l-0.47-0.41l-1.62,1.84l-1.1-0.97l1.59-1.81l-0.46-0.41l-1.59,1.81l-1.03-0.91l1.62-1.84l-0.47-0.41l-2.08,2.37l3.53,3.1
		L162.55,105.01z M158.09,109.6l-1.31-1.46l-0.46-3.26l-0.61,0.55l0.38,2.48l-2.43-0.64l-0.6,0.54l3.2,0.81l1.31,1.47L158.09,109.6z
		 M151.19,112.06c0.51,0.76,0.76,1.66,0.07,2.12c-0.69,0.46-1.43-0.12-1.93-0.88c-0.51-0.76-0.76-1.66-0.06-2.12
		C149.95,110.72,150.68,111.3,151.19,112.06 M148.72,113.7c0.65,0.97,1.8,1.73,2.88,1c1.09-0.72,0.83-2.08,0.18-3.04
		c-0.64-0.97-1.79-1.72-2.88-1C147.82,111.39,148.08,112.73,148.72,113.7 M145.34,117.34c0.53,0.24,1.14,0.25,1.86-0.11
		c0.89-0.45,1.27-1.32,0.83-2.18c-0.43-0.86-1.31-1.03-2.02-0.67c-0.41,0.21-0.68,0.55-0.78,0.86l-0.68-1.34l2.03-1.02l-0.28-0.55
		l-2.66,1.34l1.16,2.3l0.53-0.08c0.14-0.4,0.39-0.67,0.75-0.86c0.54-0.27,1.06-0.13,1.32,0.37c0.23,0.46,0.05,1-0.5,1.28
		c-0.49,0.25-0.96,0.25-1.41,0.05L145.34,117.34z M136.79,118.73c0.46,1.39,1.81,1.97,3.08,1.54c0.76-0.25,1.27-0.77,1.54-1.39
		l-0.54-1.64l-2.1,0.7l0.2,0.59l1.43-0.48l0.27,0.8c-0.15,0.27-0.49,0.65-0.98,0.82c-0.93,0.31-1.87-0.18-2.2-1.18
		c-0.33-1,0.13-1.94,1.06-2.25c0.52-0.17,1.06-0.06,1.43,0.19l0.44-0.5c-0.54-0.38-1.22-0.57-2.06-0.29
		C137.06,116.07,136.33,117.34,136.79,118.73 M135.87,121.31l-0.92-4.61l-0.69,0.14l0.69,3.46l-3.2-2.96l-0.71,0.14l0.92,4.61
		l0.69-0.14l-0.71-3.54l3.26,3.03L135.87,121.31z M130.07,122.29l-0.57-4.67l-0.7,0.08l0.57,4.67L130.07,122.29z M126.34,122.56
		l-0.19-4.08l1.45-0.07l-0.03-0.62l-3.61,0.17l0.03,0.62l1.46-0.07l0.19,4.08L126.34,122.56z M122.29,120.95l-1.89-0.13l1.11-2.42
		L122.29,120.95z M123.54,122.64l-1.55-4.82l-0.88-0.06l-2.18,4.57l0.77,0.05l0.44-0.95l2.3,0.15l0.32,1L123.54,122.64z
		 M117.53,118.82c-0.08,0.49-0.5,0.75-1,0.67l-1.17-0.19l0.27-1.63l1.17,0.19C117.3,117.95,117.61,118.33,117.53,118.82
		 M117.75,122.16l-0.88-2.05c0.6,0.02,1.24-0.33,1.38-1.17c0.14-0.86-0.37-1.53-1.25-1.67l-1.95-0.32l-0.77,4.64l0.69,0.12l0.3-1.79
		l0.87,0.14l0.81,1.97L117.75,122.16z M110.35,118.39l1.35,0.38c0.5,0.14,0.67,0.54,0.56,0.91c-0.12,0.44-0.49,0.63-0.96,0.5
		l-1.35-0.38L110.35,118.39z M110.89,116.47l1.32,0.37c0.45,0.13,0.62,0.49,0.52,0.86c-0.11,0.37-0.44,0.59-0.89,0.46l-1.32-0.37
		L110.89,116.47z M111.28,120.82c0.83,0.24,1.45-0.14,1.65-0.85c0.15-0.55-0.1-1.15-0.56-1.36c0.44,0.03,0.92-0.25,1.08-0.82
		c0.19-0.66-0.14-1.28-0.95-1.51l-2.12-0.6l-1.28,4.53L111.28,120.82z M107.48,119.62l0.22-0.58l-2.29-0.89l0.53-1.37l2.24,0.87
		l0.22-0.58l-2.24-0.87l0.5-1.28l2.29,0.89l0.22-0.58l-2.94-1.14l-1.7,4.38L107.48,119.62z M103.07,117.78l0.28-0.55l-1.91-0.96
		l1.83-3.65l-0.63-0.32l-2.11,4.2L103.07,117.78z M99.04,115.63l0.33-0.53l-2.08-1.3l0.78-1.24l2.04,1.27l0.33-0.53l-2.04-1.27
		l0.73-1.17l2.08,1.3l0.33-0.53l-2.68-1.67l-2.49,3.99L99.04,115.63z M93.57,111.97c0.73,0.57,1.45,0.57,2.08,0.37l-0.28-0.62
		c-0.44,0.16-0.98,0.1-1.42-0.24c-0.75-0.59-0.86-1.63-0.22-2.46c0.65-0.83,1.69-0.97,2.44-0.38c0.44,0.34,0.63,0.86,0.58,1.32
		l0.67,0.12c0.05-0.66-0.13-1.36-0.86-1.93c-1.06-0.82-2.51-0.71-3.4,0.43C92.28,109.71,92.51,111.14,93.57,111.97"/>
	
		<linearGradient id="SVGID_00000133523371542751806930000013444196049905712774_" gradientUnits="userSpaceOnUse" x1="24.7829" y1="70.2743" x2="163.8739" y2="70.2743">
		<stop  offset="0" style="stop-color:#791316"/>
		<stop  offset="0.5049" style="stop-color:#991D20"/>
		<stop  offset="1" style="stop-color:#791316"/>
	</linearGradient>
	<path style="fill:url(#SVGID_00000133523371542751806930000013444196049905712774_);" d="M162.74,63.24
		c0.74,3.01,1.14,6.15,1.14,9.39c0,1.58-0.11,3.14-0.29,4.68H25.07c-0.18-1.54-0.29-3.1-0.29-4.68c0-3.17,0.39-6.25,1.1-9.21
		L162.74,63.24z"/>
	<g>
		<g>
			<path class="st4" d="M159.32,68.86c0,0.42-0.35,0.69-0.76,0.69h-1.25v-1.38h1.25C158.97,68.17,159.32,68.44,159.32,68.86
				 M160.95,72.97l-1.25-2.25c0.57-0.2,1.22-0.77,1.22-1.84c0-1.14-0.77-2.04-2.13-2.04h-3.07v6.13h1.58v-2.08h0.81l1.03,2.08
				H160.95z M154.62,72.97v-1.33h-2.91v-1.1h2.85v-1.34h-2.85v-1.02h2.91v-1.33h-4.49v6.13H154.62z M147.48,72.97v-4.75h1.71v-1.38
				h-5.01v1.38h1.72v4.75H147.48z M143.24,72.97v-6.13h-1.59v3.53l-2.48-3.53h-1.63v6.13h1.58v-3.7l2.59,3.7H143.24z M136.44,72.97
				v-1.33h-2.91v-1.1h2.85v-1.34h-2.85v-1.02h2.91v-1.33h-4.49v6.13H136.44z M128.36,73.08c1.53,0,2.33-0.86,2.72-1.65l-1.36-0.64
				c-0.2,0.49-0.73,0.89-1.36,0.89c-0.96,0-1.66-0.77-1.66-1.77c0-1,0.71-1.77,1.66-1.77c0.63,0,1.16,0.4,1.36,0.89l1.36-0.64
				c-0.4-0.81-1.2-1.65-2.72-1.65c-1.84,0-3.27,1.28-3.27,3.17C125.09,71.79,126.52,73.08,128.36,73.08 M120.2,68.86
				c0,0.42-0.35,0.69-0.76,0.69h-1.25v-1.38h1.25C119.85,68.17,120.2,68.44,120.2,68.86 M121.83,72.97l-1.25-2.25
				c0.57-0.2,1.22-0.77,1.22-1.84c0-1.14-0.77-2.04-2.13-2.04h-3.07v6.13h1.58v-2.08h0.81l1.03,2.08H121.83z M115.5,72.97v-1.33
				h-2.91v-1.1h2.85v-1.34h-2.85v-1.02h2.91v-1.33h-4.49v6.13H115.5z M107.42,73.08c1.53,0,2.33-0.86,2.72-1.65l-1.36-0.64
				c-0.2,0.49-0.73,0.89-1.36,0.89c-0.96,0-1.66-0.77-1.66-1.77c0-1,0.71-1.77,1.66-1.77c0.63,0,1.16,0.4,1.36,0.89l1.36-0.64
				c-0.4-0.81-1.19-1.65-2.72-1.65c-1.84,0-3.27,1.28-3.27,3.17C104.15,71.79,105.58,73.08,107.42,73.08 M103.18,72.97v-6.13h-1.59
				v3.53l-2.48-3.53h-1.63v6.13h1.58v-3.7l2.59,3.7H103.18z M94.4,70.71h-1.72l0.86-2.49L94.4,70.71z M96.84,72.97l-2.32-6.13h-1.98
				l-2.31,6.13h1.72l0.31-0.93h2.55l0.31,0.93H96.84z M87.38,73.08c1.53,0,2.33-0.86,2.72-1.65l-1.36-0.64
				c-0.2,0.49-0.73,0.89-1.36,0.89c-0.96,0-1.66-0.77-1.66-1.77c0-1,0.71-1.77,1.66-1.77c0.63,0,1.16,0.4,1.36,0.89l1.36-0.64
				c-0.4-0.81-1.2-1.65-2.72-1.65c-1.84,0-3.27,1.28-3.27,3.17C84.1,71.79,85.54,73.08,87.38,73.08 M80.59,72.97v-6.13H79v3.53
				l-2.48-3.53h-1.63v6.13h1.58v-3.7l2.59,3.7H80.59z M72.3,69.91c0,0.99-0.65,1.77-1.66,1.77c-1.02,0-1.67-0.78-1.67-1.77
				c0-1,0.65-1.77,1.67-1.77C71.65,68.13,72.3,68.91,72.3,69.91 M67.36,69.91c0,1.87,1.41,3.17,3.28,3.17s3.27-1.31,3.27-3.17
				c0-1.87-1.4-3.17-3.27-3.17S67.36,68.04,67.36,69.91 M61.47,72.11c0.62,0.59,1.48,0.97,2.72,0.97c1.64,0,2.55-0.82,2.55-2.05
				c0-1.39-1.4-1.68-2.41-1.89c-0.68-0.13-1.06-0.24-1.06-0.56c0-0.27,0.2-0.48,0.73-0.48c0.54,0,1.21,0.21,1.73,0.63l0.86-1.13
				c-0.65-0.56-1.51-0.85-2.49-0.85c-1.57,0-2.45,0.89-2.45,1.92c0,1.45,1.42,1.71,2.43,1.91c0.65,0.14,1.05,0.28,1.05,0.62
				c0,0.29-0.33,0.52-0.87,0.52c-0.84,0-1.52-0.37-1.96-0.81L61.47,72.11z M60.63,72.97v-6.13h-2.2l-1.29,3.47l-1.28-3.47h-2.2v6.13
				h1.58v-4.14l1.55,4.14h0.7l1.55-4.14v4.14H60.63z M50.59,70.71h-1.72l0.85-2.49L50.59,70.71z M53.04,72.97l-2.32-6.13h-1.98
				l-2.31,6.13h1.72l0.31-0.93h2.55l0.31,0.93H53.04z M44.42,68.86c0,0.42-0.35,0.69-0.76,0.69H42.4v-1.38h1.25
				C44.07,68.17,44.42,68.44,44.42,68.86 M46.05,72.97l-1.25-2.25c0.57-0.2,1.22-0.77,1.22-1.84c0-1.14-0.77-2.04-2.13-2.04h-3.07
				v6.13h1.58v-2.08h0.81l1.03,2.08H46.05z M35.97,70.52h1.59c0.39,0,0.61,0.27,0.61,0.58c0,0.33-0.23,0.56-0.61,0.56h-1.59V70.52z
				 M35.97,68.15h1.54c0.32,0,0.54,0.22,0.54,0.52c0,0.3-0.22,0.53-0.54,0.53h-1.54V68.15z M37.97,72.97c1.2,0,1.8-0.77,1.8-1.66
				c0-0.77-0.51-1.4-1.17-1.5c0.58-0.13,1.05-0.64,1.05-1.41c0-0.77-0.58-1.56-1.79-1.56h-3.47v6.13H37.97z M31.31,70.71h-1.72
				l0.85-2.49L31.31,70.71z M33.75,72.97l-2.32-6.13h-1.99l-2.31,6.13h1.72l0.31-0.93h2.55l0.31,0.93H33.75z"/>
		</g>
	</g>
</g>
<g id="Red">
</g>
<g id="White">
	<g>
		
			<linearGradient id="SVGID_00000171713617505797628330000012392231493346763423_" gradientUnits="userSpaceOnUse" x1="46.4868" y1="41.247" x2="162.0896" y2="41.247">
			<stop  offset="0" style="stop-color:#947238"/>
			<stop  offset="0.5049" style="stop-color:#EBC56E"/>
			<stop  offset="1" style="stop-color:#947238"/>
		</linearGradient>
		<path style="fill:url(#SVGID_00000171713617505797628330000012392231493346763423_);" d="M92.25,60.89h3.82
			c4.62-11.14,15.6-18.99,28.39-18.99c12.79,0,23.77,7.85,28.39,18.99h9.24c-5.01-16.02-19.98-27.68-37.63-27.68
			c-12.57,0-23.78,5.91-31,15.1c-6.01-5.7-14.12-9.19-23.03-9.19H56.59l0.88-8.33h33.79V21.6H50l-3.52,26.21h23.94
			C79.86,47.81,88.06,53.12,92.25,60.89z"/>
		
			<linearGradient id="SVGID_00000130626453758073597660000010274607809913902499_" gradientUnits="userSpaceOnUse" x1="25.7898" y1="95.9089" x2="163.2121" y2="95.9089">
			<stop  offset="0" style="stop-color:#947238"/>
			<stop  offset="0.5049" style="stop-color:#EBC56E"/>
			<stop  offset="1" style="stop-color:#947238"/>
		</linearGradient>
		<path style="fill:url(#SVGID_00000130626453758073597660000010274607809913902499_);" d="M154.34,79.78
			c-3.23,13.51-15.4,23.58-29.88,23.58c-14.42,0-26.54-10-29.83-23.42h-0.27c-3.29,13.43-15.41,23.42-29.83,23.42
			c-14.43,0-26.56-10-29.85-23.42h-8.88c3.43,18.26,19.49,32.11,38.73,32.11c11.98,0,22.74-5.38,29.97-13.85
			c7.23,8.47,17.98,13.85,29.97,13.85c19.29,0,35.38-13.94,38.75-32.27H154.34z"/>
	</g>
	<g>
		
			<linearGradient id="SVGID_00000070102913322851841700000009100973467359925895_" gradientUnits="userSpaceOnUse" x1="37.6941" y1="22.6093" x2="159.3049" y2="69.8015">
			<stop  offset="0" style="stop-color:#1F2857"/>
			<stop  offset="0.0544" style="stop-color:#264072"/>
			<stop  offset="0.1269" style="stop-color:#2D598F"/>
			<stop  offset="0.2042" style="stop-color:#336DA6"/>
			<stop  offset="0.2874" style="stop-color:#377BB6"/>
			<stop  offset="0.3807" style="stop-color:#3983C0"/>
			<stop  offset="0.5049" style="stop-color:#3A86C3"/>
			<stop  offset="0.6323" style="stop-color:#3983C0"/>
			<stop  offset="0.7232" style="stop-color:#377BB7"/>
			<stop  offset="0.8027" style="stop-color:#336EA7"/>
			<stop  offset="0.8758" style="stop-color:#2E5B91"/>
			<stop  offset="0.9437" style="stop-color:#264275"/>
			<stop  offset="1" style="stop-color:#1F2857"/>
		</linearGradient>
		<path style="fill:url(#SVGID_00000070102913322851841700000009100973467359925895_);" d="M124.46,52.1
			c6.96,0,13.1,3.48,16.82,8.79h9.93c-4.53-10.28-14.81-17.48-26.75-17.48c-11.94,0-22.21,7.2-26.74,17.48h9.94
			C111.37,55.59,117.51,52.1,124.46,52.1z"/>
		
			<linearGradient id="SVGID_00000127029216384623977380000013053803002267578294_" gradientUnits="userSpaceOnUse" x1="36.4096" y1="25.9194" x2="158.0204" y2="73.1116">
			<stop  offset="0" style="stop-color:#1F2857"/>
			<stop  offset="0.0544" style="stop-color:#264072"/>
			<stop  offset="0.1269" style="stop-color:#2D598F"/>
			<stop  offset="0.2042" style="stop-color:#336DA6"/>
			<stop  offset="0.2874" style="stop-color:#377BB6"/>
			<stop  offset="0.3807" style="stop-color:#3983C0"/>
			<stop  offset="0.5049" style="stop-color:#3A86C3"/>
			<stop  offset="0.6323" style="stop-color:#3983C0"/>
			<stop  offset="0.7232" style="stop-color:#377BB7"/>
			<stop  offset="0.8027" style="stop-color:#336EA7"/>
			<stop  offset="0.8758" style="stop-color:#2E5B91"/>
			<stop  offset="0.9437" style="stop-color:#264275"/>
			<stop  offset="1" style="stop-color:#1F2857"/>
		</linearGradient>
		<path style="fill:url(#SVGID_00000127029216384623977380000013053803002267578294_);" d="M79.11,60.89h11.41
			C86.48,53.98,79,49.32,70.43,49.32h-25.7l3.89-29.17h42.56l0.08-5.73H41.24l-6.61,43.58h35.81
			C73.68,58.01,76.68,59.08,79.11,60.89z"/>
		
			<linearGradient id="SVGID_00000120537471006758701600000014481763107868462010_" gradientUnits="userSpaceOnUse" x1="19.669" y1="69.0585" x2="141.2799" y2="116.2507">
			<stop  offset="0" style="stop-color:#1F2857"/>
			<stop  offset="0.0544" style="stop-color:#264072"/>
			<stop  offset="0.1269" style="stop-color:#2D598F"/>
			<stop  offset="0.2042" style="stop-color:#336DA6"/>
			<stop  offset="0.2874" style="stop-color:#377BB6"/>
			<stop  offset="0.3807" style="stop-color:#3983C0"/>
			<stop  offset="0.5049" style="stop-color:#3A86C3"/>
			<stop  offset="0.6323" style="stop-color:#3983C0"/>
			<stop  offset="0.7232" style="stop-color:#377BB7"/>
			<stop  offset="0.8027" style="stop-color:#336EA7"/>
			<stop  offset="0.8758" style="stop-color:#2E5B91"/>
			<stop  offset="0.9437" style="stop-color:#264275"/>
			<stop  offset="1" style="stop-color:#1F2857"/>
		</linearGradient>
		<path style="fill:url(#SVGID_00000120537471006758701600000014481763107868462010_);" d="M64.52,93.16
			c-8.75,0-16.23-5.5-19.18-13.22h-9.11c3.25,12.59,14.7,21.91,28.3,21.91c13.59,0,25.02-9.33,28.27-21.91h-9.11
			C80.73,87.65,73.26,93.16,64.52,93.16z"/>
		
			<linearGradient id="SVGID_00000055678145732955491900000000466190339371934082_" gradientUnits="userSpaceOnUse" x1="27.5441" y1="48.7651" x2="149.155" y2="95.9573">
			<stop  offset="0" style="stop-color:#1F2857"/>
			<stop  offset="0.0544" style="stop-color:#264072"/>
			<stop  offset="0.1269" style="stop-color:#2D598F"/>
			<stop  offset="0.2042" style="stop-color:#336DA6"/>
			<stop  offset="0.2874" style="stop-color:#377BB6"/>
			<stop  offset="0.3807" style="stop-color:#3983C0"/>
			<stop  offset="0.5049" style="stop-color:#3A86C3"/>
			<stop  offset="0.6323" style="stop-color:#3983C0"/>
			<stop  offset="0.7232" style="stop-color:#377BB7"/>
			<stop  offset="0.8027" style="stop-color:#336EA7"/>
			<stop  offset="0.8758" style="stop-color:#2E5B91"/>
			<stop  offset="0.9437" style="stop-color:#264275"/>
			<stop  offset="1" style="stop-color:#1F2857"/>
		</linearGradient>
		<path style="fill:url(#SVGID_00000055678145732955491900000000466190339371934082_);" d="M143.68,79.78
			c-2.91,7.8-10.42,13.38-19.22,13.38c-8.74,0-16.21-5.51-19.16-13.22h-9.11c3.25,12.58,14.69,21.91,28.28,21.91
			c13.64,0,25.13-9.4,28.33-22.07H143.68z"/>
	</g>
	<g class="st11">
		
			<linearGradient id="SVGID_00000176042939036162628120000005182351044738640784_" gradientUnits="userSpaceOnUse" x1="56.4919" y1="3.8974" x2="151.2064" y2="82.6061">
			<stop  offset="0" style="stop-color:#2A4B7A"/>
			<stop  offset="0.0649" style="stop-color:#2F5C90"/>
			<stop  offset="0.1544" style="stop-color:#346FA6"/>
			<stop  offset="0.2513" style="stop-color:#377CB6"/>
			<stop  offset="0.3601" style="stop-color:#3984C0"/>
			<stop  offset="0.5049" style="stop-color:#3A86C3"/>
			<stop  offset="0.6524" style="stop-color:#3984C0"/>
			<stop  offset="0.7577" style="stop-color:#377CB7"/>
			<stop  offset="0.8498" style="stop-color:#3470A7"/>
			<stop  offset="0.9338" style="stop-color:#2F5E91"/>
			<stop  offset="1" style="stop-color:#2A4B7A"/>
		</linearGradient>
		<path style="fill:url(#SVGID_00000176042939036162628120000005182351044738640784_);" d="M122.73,52.41
			c6.64,0,12.5,3.37,15.98,8.48H148c-4.22-9.79-13.96-16.66-25.27-16.66c-11.32,0-21.05,6.87-25.26,16.66h9.3
			C110.25,55.78,116.09,52.41,122.73,52.41z"/>
		
			<linearGradient id="SVGID_00000170250491427048751930000008892743634430207649_" gradientUnits="userSpaceOnUse" x1="43.9695" y1="18.9662" x2="138.6841" y2="97.675">
			<stop  offset="0" style="stop-color:#2A4B7A"/>
			<stop  offset="0.0649" style="stop-color:#2F5C90"/>
			<stop  offset="0.1544" style="stop-color:#346FA6"/>
			<stop  offset="0.2513" style="stop-color:#377CB6"/>
			<stop  offset="0.3601" style="stop-color:#3984C0"/>
			<stop  offset="0.5049" style="stop-color:#3A86C3"/>
			<stop  offset="0.6524" style="stop-color:#3984C0"/>
			<stop  offset="0.7577" style="stop-color:#377CB7"/>
			<stop  offset="0.8498" style="stop-color:#3470A7"/>
			<stop  offset="0.9338" style="stop-color:#2F5E91"/>
			<stop  offset="1" style="stop-color:#2A4B7A"/>
		</linearGradient>
		<path style="fill:url(#SVGID_00000170250491427048751930000008892743634430207649_);" d="M80.29,60.89h10.52
			c-4.1-6.79-12.1-11.66-20.27-11.66l-25.78,0.04l3.99-29.08h42.52v-5.77H44.38l-6.23,43.55h33.71
			C75.04,57.98,77.96,59.07,80.29,60.89z"/>
		
			<linearGradient id="SVGID_00000094597259177861676070000006968327984376428733_" gradientUnits="userSpaceOnUse" x1="21.7077" y1="45.755" x2="116.4223" y2="124.4638">
			<stop  offset="0" style="stop-color:#2A4B7A"/>
			<stop  offset="0.0649" style="stop-color:#2F5C90"/>
			<stop  offset="0.1544" style="stop-color:#346FA6"/>
			<stop  offset="0.2513" style="stop-color:#377CB6"/>
			<stop  offset="0.3601" style="stop-color:#3984C0"/>
			<stop  offset="0.5049" style="stop-color:#3A86C3"/>
			<stop  offset="0.6524" style="stop-color:#3984C0"/>
			<stop  offset="0.7577" style="stop-color:#377CB7"/>
			<stop  offset="0.8498" style="stop-color:#3470A7"/>
			<stop  offset="0.9338" style="stop-color:#2F5E91"/>
			<stop  offset="1" style="stop-color:#2A4B7A"/>
		</linearGradient>
		<path style="fill:url(#SVGID_00000094597259177861676070000006968327984376428733_);" d="M66.29,91.07
			c-7.73,0-14.42-4.56-17.5-11.14h-8.74c3.49,11.18,13.93,19.32,26.25,19.32c12.31,0,22.73-8.14,26.23-19.32h-8.75
			C80.68,86.5,74.02,91.07,66.29,91.07z"/>
		
			<linearGradient id="SVGID_00000121250234945485354540000003847615726901671331_" gradientUnits="userSpaceOnUse" x1="44.8161" y1="17.9475" x2="139.5306" y2="96.6562">
			<stop  offset="0" style="stop-color:#2A4B7A"/>
			<stop  offset="0.0649" style="stop-color:#2F5C90"/>
			<stop  offset="0.1544" style="stop-color:#346FA6"/>
			<stop  offset="0.2513" style="stop-color:#377CB6"/>
			<stop  offset="0.3601" style="stop-color:#3984C0"/>
			<stop  offset="0.5049" style="stop-color:#3A86C3"/>
			<stop  offset="0.6524" style="stop-color:#3984C0"/>
			<stop  offset="0.7577" style="stop-color:#377CB7"/>
			<stop  offset="0.8498" style="stop-color:#3470A7"/>
			<stop  offset="0.9338" style="stop-color:#2F5E91"/>
			<stop  offset="1" style="stop-color:#2A4B7A"/>
		</linearGradient>
		<path style="fill:url(#SVGID_00000121250234945485354540000003847615726901671331_);" d="M140.28,79.78
			c-3.06,6.65-9.77,11.29-17.55,11.29c-7.73,0-14.39-4.57-17.48-11.14H96.5c3.5,11.17,13.92,19.32,26.23,19.32
			c12.37,0,22.86-8.21,26.31-19.47H140.28z"/>
	</g>
</g>
</svg>
