<?xml version="1.0" encoding="utf-8"?>
<!-- Generator: Adobe Illustrator 25.4.1, SVG Export Plug-In . SVG Version: 6.00 Build 0)  -->
<svg version="1.1" id="Layer_1" xmlns="http://www.w3.org/2000/svg" xmlns:xlink="http://www.w3.org/1999/xlink" x="0px" y="0px"
	 viewBox="0 0 180 54" style="enable-background:new 0 0 180 54;" xml:space="preserve">
<style type="text/css">
	.st0{fill:#FFFFFF;}
	.st1{fill:#990000;}
	.st2{fill:#011F5B;}
</style>
<g>
	<path class="st0" d="M144.06,21.05h-0.44c-0.39-1.65-1.55-2.71-3.07-2.71c-1.81,0-3.07,1.55-3.07,3.8c0,2.51,1.58,4.6,3.44,4.6
		c1.11,0,2.45-0.59,3.41-1.91v0.67c-0.98,1.34-2.38,2.01-4.03,2.01c-2.71,0-4.6-1.89-4.6-4.62c0-2.82,2.12-5.06,4.73-5.06
		c1.37,0,2.12,0.52,2.58,0.52c0.23,0,0.46-0.18,0.62-0.52h0.44V21.05L144.06,21.05z M47.49,24.43c0,1.83,0.44,2.35,1.68,2.35v0.44
		h-5.32v-0.44c1.03,0,1.68-0.34,1.68-2.3v-9.27c0-1.81-0.44-2.35-1.68-2.35v-0.44h5.4c4.08,0,5.73,2.17,5.73,4.21
		c0,2.45-1.86,3.82-5.22,3.82c-0.65,0-1.19-0.03-2.27-0.16V24.43L47.49,24.43z M47.49,19.63c0.67,0.23,1.06,0.26,1.83,0.26
		c2.2,0,3.59-1.19,3.59-3.2c0-1.58-0.88-3.69-3.59-3.69h-1.83V19.63L47.49,19.63z M56.5,21.64c-0.05,4.11,2.4,5.14,3.64,5.14
		c1.27,0,1.91-0.44,3.23-1.91v0.67c-1.11,1.42-2.17,1.96-3.77,1.96c-2.87,0-4.93-1.99-4.93-4.75c0-2.76,2.01-4.93,4.6-4.93
		c2.12,0,4.08,1.7,3.95,3.82H56.5L56.5,21.64z M61.48,21.2c0.08-2.01-1.29-2.84-2.45-2.84c-1.52,0-2.43,1.14-2.53,2.84H61.48
		L61.48,21.2z M73.56,25.23c0,1.19,0.26,1.55,1.55,1.55v0.44h-4.88v-0.44c1.24,0,1.58-0.28,1.58-1.14v-4.78
		c0-1.47-1.06-2.09-2.04-2.09c-0.9,0-1.7,0.57-2.61,1.78v4.47c0,1.39,0.18,1.76,1.55,1.76v0.44h-4.83v-0.44
		c1.21,0,1.52-0.1,1.52-1.76v-5.14c0-1.11-0.28-1.34-1.52-1.34V18.1l2.84-0.28h0.44v1.83c1.08-1.24,2.14-1.83,3.31-1.83
		c1.52,0,3.1,1.09,3.1,3.28V25.23L73.56,25.23z M85.2,25.23c0,1.19,0.26,1.55,1.55,1.55v0.44h-4.88v-0.44
		c1.24,0,1.58-0.28,1.58-1.14v-4.78c0-1.47-1.06-2.09-2.04-2.09c-0.9,0-1.7,0.57-2.61,1.78v4.47c0,1.39,0.18,1.76,1.55,1.76v0.44
		h-4.83v-0.44c1.21,0,1.52-0.1,1.52-1.76v-5.14c0-1.11-0.28-1.34-1.52-1.34V18.1l2.84-0.28h0.44v1.83c1.08-1.24,2.14-1.83,3.31-1.83
		c1.52,0,3.1,1.09,3.1,3.28V25.23L85.2,25.23z M107.04,12.86c-1.27,0.03-1.76,0.9-1.65,2.3l0.75,9.12c0.16,1.81,0.46,2.38,1.83,2.51
		v0.44h-5.32v-0.44c1.21-0.21,1.63-0.75,1.52-2.22L103.45,15h-0.05l-5.06,12.22h-0.39L92.99,15h-0.05l-0.83,9.12
		c-0.13,1.5,0.41,2.38,1.91,2.66v0.44h-4.6v-0.44c1.5-0.21,1.73-1.08,1.89-2.71l0.9-10.18c-0.57-0.62-1.09-0.9-1.94-1.03v-0.44h3.75
		l4.73,11.65l4.8-11.65h3.49V12.86L107.04,12.86z M110.34,21.64c-0.05,4.11,2.4,5.14,3.64,5.14c1.27,0,1.91-0.44,3.23-1.91v0.67
		c-1.11,1.42-2.17,1.96-3.77,1.96c-2.87,0-4.93-1.99-4.93-4.75c0-2.76,2.01-4.93,4.6-4.93c2.12,0,4.08,1.7,3.95,3.82H110.34
		L110.34,21.64z M115.33,21.2c0.08-2.01-1.29-2.84-2.45-2.84c-1.52,0-2.43,1.14-2.53,2.84H115.33L115.33,21.2z M127.63,25.44
		c0,1.01,0.36,1.34,1.52,1.34v0.44h-5.32c-3.87,0-5.32-2.61-5.32-4.75c0-2.58,1.91-4.65,4.29-4.65c0.98,0,1.91,0.34,3.07,1.11v-5.61
		c0-1.32-0.31-1.58-1.21-1.58h-0.52v-0.44l3.05-0.31h0.44V25.44L127.63,25.44z M125.87,19.91c-0.72-0.98-1.73-1.55-2.66-1.55
		c-1.65,0-2.79,1.5-2.79,3.72c0,2.2,1.01,4.73,4,4.73c1.03,0,1.45-0.41,1.45-1.39V19.91L125.87,19.91z M133.49,25.52
		c0,0.9,0.23,1.27,1.52,1.27v0.44H130v-0.44c1.39,0,1.73-0.18,1.73-1.27v-5.61c0-1.27-0.39-1.37-1.73-1.37V18.1l3.05-0.28h0.44
		V25.52L133.49,25.52z M133.75,14.2c0,0.62-0.49,1.14-1.11,1.14s-1.14-0.52-1.14-1.14s0.52-1.11,1.14-1.11S133.75,13.58,133.75,14.2
		L133.75,14.2z M148.45,25.52c0,0.9,0.23,1.27,1.52,1.27v0.44h-5.01v-0.44c1.4,0,1.73-0.18,1.73-1.27v-5.61
		c0-1.27-0.39-1.37-1.73-1.37V18.1l3.05-0.28h0.44V25.52L148.45,25.52z M148.7,14.2c0,0.62-0.49,1.14-1.11,1.14
		c-0.62,0-1.14-0.52-1.14-1.14s0.52-1.11,1.14-1.11C148.21,13.09,148.7,13.58,148.7,14.2L148.7,14.2z M160.21,25.23
		c0,1.19,0.26,1.55,1.55,1.55v0.44h-4.88v-0.44c1.24,0,1.58-0.28,1.58-1.14v-4.78c0-1.47-1.06-2.09-2.04-2.09
		c-0.91,0-1.71,0.57-2.61,1.78v4.47c0,1.39,0.18,1.76,1.55,1.76v0.44h-4.83v-0.44c1.21,0,1.52-0.1,1.52-1.76v-5.14
		c0-1.11-0.28-1.34-1.52-1.34V18.1l2.84-0.28h0.44v1.83c1.08-1.24,2.14-1.83,3.31-1.83c1.52,0,3.1,1.09,3.1,3.28V25.23L160.21,25.23
		z M164.13,21.64c-0.05,4.11,2.4,5.14,3.64,5.14c1.27,0,1.91-0.44,3.23-1.91v0.67c-1.11,1.42-2.17,1.96-3.77,1.96
		c-2.87,0-4.93-1.99-4.93-4.75c0-2.76,2.02-4.93,4.6-4.93c2.12,0,4.08,1.7,3.95,3.82H164.13L164.13,21.64z M169.11,21.2
		c0.08-2.01-1.29-2.84-2.45-2.84c-1.52,0-2.43,1.14-2.53,2.84H169.11L169.11,21.2z"/>
	<path class="st0" d="M37.17,12H9c0,0,0,13.97,0,14.04c-0.02,6.11,3.37,10.54,6.21,13.18c3.13,2.9,6.58,4.57,7.73,4.83l0.14,0.03
		l0.14-0.03c1.15-0.25,4.6-1.92,7.73-4.83c2.85-2.64,6.23-7.07,6.21-13.18C37.17,25.87,37.17,12,37.17,12L37.17,12L37.17,12z"/>
	<path class="st1" d="M35.44,17.88L35.44,17.88c0.04,0.03,0.08,0.07,0.11,0.11c0.03,0.05,0.05,0.1,0.05,0.16
		c0,0.06-0.01,0.11-0.05,0.16c-0.03,0.04-0.07,0.08-0.11,0.11c-0.06,0.05-0.12,0.1-0.12,0.18v0.5l-2.95,0l-2.95,0v-0.5
		c0-0.08-0.06-0.13-0.12-0.18c-0.04-0.03-0.08-0.07-0.11-0.11c-0.03-0.05-0.05-0.1-0.05-0.16c0-0.06,0.01-0.11,0.05-0.16
		c0.03-0.04,0.07-0.08,0.11-0.11c0.06-0.05,0.12-0.1,0.12-0.18v-1.63c0-0.08-0.06-0.13-0.12-0.18c-0.04-0.03-0.08-0.07-0.11-0.11
		c-0.03-0.05-0.05-0.1-0.05-0.16c0-0.06,0.01-0.11,0.05-0.16c0.03-0.04,0.07-0.08,0.11-0.11c0.06-0.05,0.12-0.1,0.12-0.18v-0.52
		h0.08c0.35,0,0.65-0.01,0.86-0.1c0.09-0.04,0.17-0.09,0.25-0.14c0.18-0.11,0.39-0.24,0.69-0.24c0.25,0,0.48,0.09,0.68,0.17
		c0.14,0.06,0.28,0.11,0.38,0.11h0.04c0.1,0,0.24-0.05,0.38-0.11c0.2-0.08,0.43-0.17,0.68-0.17c0.31,0,0.51,0.13,0.69,0.24
		c0.08,0.05,0.16,0.1,0.25,0.14c0.21,0.09,0.51,0.1,0.86,0.1h0.07v0.52c0,0.08,0.06,0.13,0.12,0.18c0.04,0.03,0.08,0.07,0.11,0.11
		c0.03,0.05,0.05,0.1,0.05,0.16c0,0.06-0.01,0.11-0.05,0.16c-0.03,0.04-0.07,0.08-0.11,0.11c-0.06,0.05-0.12,0.1-0.12,0.18v1.63
		C35.32,17.79,35.38,17.83,35.44,17.88L35.44,17.88L35.44,17.88z M28.2,18.74c-0.46,0.73-1.34,0.91-1.37,0.92
		c-0.17,0.03-0.35,0.05-0.53,0.05h0c-0.92,0-1.77-0.4-2.63-0.85c-0.1-0.05-0.21-0.11-0.32-0.17c-0.55-0.3-1.32-0.72-1.97-0.72
		c-0.19,0-0.37,0.04-0.53,0.12l-0.03,0.01l0,0.03c0,0.08-0.02,0.17-0.05,0.24c-0.1,0.28-0.44,0.57-0.61,0.69
		c-0.38,0.27-0.84,0.55-1.42,0.55c-0.09,0-0.17-0.01-0.24-0.04c-0.1-0.04-0.19-0.1-0.26-0.18c-0.03-0.04-0.06-0.09-0.08-0.14
		c-0.02-0.04-0.03-0.08-0.03-0.13l0-0.03l-0.03-0.01c-0.22-0.07-0.36-0.21-0.36-0.39c0-0.13,0.1-0.25,0.2-0.37
		c0.15-0.18,0.28-0.33,0.07-0.53c-0.02-0.02-0.04-0.04-0.07-0.05c-0.03-0.02-0.06-0.04-0.09-0.07c-0.19-0.2-0.08-0.61-0.01-0.86
		l0.01-0.03c0.07-0.27,0.18-0.55,0.33-0.85c0.21-0.41,0.46-0.88,0.81-1.17c0.01-0.01,0.02-0.01,0.03-0.01
		c0.01,0,0.02,0.01,0.02,0.01c0.01,0.01,0.05,0.07,0.1,0.16l0.06,0.1l0.04-0.11c0.1-0.29,0.26-0.48,0.48-0.56
		c0.24-0.09,0.46,0.03,0.57,0.11l0.05,0.03l0.03-0.05c0.07-0.11,0.2-0.25,0.42-0.26c0.24-0.01,0.43,0.15,0.53,0.25l0.03,0.04
		l0.04-0.03c0.11-0.09,0.39-0.29,0.67-0.26c0.27,0.04,0.37,0.27,0.4,0.36l0.02,0.06l0.06-0.03c0.12-0.06,0.37-0.14,0.6,0
		c0.15,0.09,0.16,0.25,0.15,0.37l-0.01,0.07L23.3,15c0.17-0.03,0.49-0.05,0.68,0.14c0.15,0.15,0.16,0.35,0.14,0.48l-0.01,0.07
		l0.07-0.01c0.15-0.02,0.35,0,0.46,0.17c0.07,0.11,0.05,0.28,0.02,0.36l-0.01,0.05l0.05,0.01c0.09,0.02,0.24,0.08,0.29,0.2
		c0.03,0.09,0.02,0.25-0.03,0.43l-0.01,0.05l0.04,0.02c0.08,0.03,0.21,0.11,0.29,0.25c0.07,0.15,0.07,0.33-0.01,0.54l-0.01,0.03
		l0.03,0.02c0.2,0.17,0.39,0.33,0.59,0.47c0.39,0.29,1.01,0.44,1.42,0.1c0.16-0.13,0.23-0.37,0.17-0.59
		c-0.05-0.2-0.18-0.33-0.36-0.37c-0.31-0.07-0.56,0.23-0.77,0.53c-0.01,0.01-0.02,0.02-0.03,0.01c-0.01,0-0.02-0.01-0.03-0.02
		c-0.19-0.45-0.2-0.82-0.03-1.1c0.14-0.24,0.42-0.41,0.76-0.46l0.05-0.01l0-0.05c-0.01-0.53,0.12-0.91,0.38-1.14
		c0.16-0.14,0.44-0.29,0.92-0.23c0.01,0,0.02,0.01,0.02,0.02c0,0.01,0.01,0.02,0,0.03c-0.35,0.85-0.26,1.16-0.07,1.86
		c0.02,0.06,0.03,0.13,0.05,0.19v0C28.53,17.72,28.48,18.28,28.2,18.74L28.2,18.74L28.2,18.74z M16.89,17.88L16.89,17.88
		c0.04,0.03,0.08,0.07,0.11,0.11c0.03,0.05,0.05,0.1,0.05,0.16c0,0.06-0.02,0.11-0.05,0.16c-0.03,0.04-0.07,0.08-0.11,0.11
		c-0.06,0.05-0.12,0.1-0.12,0.18v0.5l-2.95,0l-2.95,0v-0.5c0-0.08-0.06-0.13-0.12-0.18c-0.04-0.03-0.08-0.07-0.11-0.11
		c-0.03-0.05-0.05-0.1-0.05-0.16c0-0.06,0.01-0.11,0.05-0.16c0.03-0.04,0.07-0.08,0.11-0.11c0.06-0.05,0.12-0.1,0.12-0.18v-1.63
		c0-0.08-0.06-0.13-0.12-0.18c-0.04-0.03-0.08-0.07-0.11-0.11c-0.03-0.05-0.05-0.1-0.05-0.16c0-0.06,0.01-0.11,0.05-0.16
		c0.03-0.04,0.07-0.08,0.11-0.11c0.06-0.05,0.12-0.1,0.12-0.18v-0.52h0.08c0.35,0,0.65-0.01,0.86-0.1c0.09-0.04,0.17-0.09,0.25-0.14
		c0.18-0.11,0.39-0.24,0.69-0.24c0.25,0,0.48,0.09,0.68,0.17c0.14,0.06,0.28,0.11,0.38,0.11h0.04c0.1,0,0.24-0.05,0.38-0.11
		c0.2-0.08,0.43-0.17,0.68-0.17c0.31,0,0.51,0.13,0.69,0.24c0.08,0.05,0.16,0.1,0.25,0.14c0.21,0.09,0.51,0.1,0.86,0.1h0.08v0.52
		c0,0.08,0.06,0.13,0.12,0.18c0.04,0.03,0.08,0.07,0.11,0.11c0.03,0.05,0.05,0.1,0.05,0.16c0,0.06-0.02,0.11-0.05,0.16
		c-0.03,0.04-0.07,0.08-0.11,0.11c-0.06,0.05-0.12,0.1-0.12,0.18v1.63C16.77,17.79,16.83,17.83,16.89,17.88L16.89,17.88L16.89,17.88
		z M9.71,12.75c0,0,0.04,8.16,0,8.12l26.75,0c0-3.82,0-8.12,0-8.12H9.71L9.71,12.75L9.71,12.75z"/>
	<path class="st2" d="M18.93,17.53c0.09,0,0.18,0.02,0.27,0.1c0.03,0.02,0.06,0.05,0.08,0.07c0.06,0.06,0.06,0.16-0.01,0.21
		c-0.07,0.05-0.14,0.11-0.19,0.14c-0.11,0.07-0.3,0.21-0.43,0.1c-0.07-0.05,0.06-0.14,0.01-0.37
		C18.62,17.61,18.79,17.53,18.93,17.53L18.93,17.53L18.93,17.53z"/>
	<path class="st2" d="M18.97,14.9c-0.3,0.28-0.52,0.7-0.71,1.07c-0.15,0.3-0.26,0.57-0.33,0.83l-0.01,0.03
		c-0.05,0.19-0.16,0.6-0.02,0.75c0.02,0.02,0.04,0.04,0.07,0.06c0.02,0.02,0.05,0.04,0.08,0.06c0.29,0.28,0.09,0.52-0.06,0.69
		c-0.09,0.1-0.17,0.2-0.17,0.29c0,0.21,0.25,0.28,0.32,0.29c0.04,0.01,0.06,0.04,0.07,0.08c0,0.06,0.01,0.1,0.03,0.15
		c0.02,0.04,0.04,0.08,0.06,0.11c0.05,0.07,0.12,0.12,0.2,0.14c0.06,0.02,0.13,0.03,0.2,0.03c0.55,0,0.99-0.27,1.36-0.53
		c0.22-0.15,0.49-0.43,0.57-0.64c0.02-0.06,0.03-0.11,0.04-0.18l-0.38-0.07c0,0-0.01,0-0.01,0c-0.04-0.01-0.07-0.04-0.07-0.08
		c-0.01-0.08,0.06-0.12,0.19-0.22c0.04-0.03,0.08-0.06,0.12-0.08c0.2-0.15,0.36-0.27,0.46-0.33c-0.11-0.12-0.2-0.26-0.27-0.37
		c-0.06-0.09-0.11-0.16-0.15-0.21c-0.19-0.21-0.52-0.33-0.8-0.16c-0.11,0.07-0.21,0.15-0.31,0.24c-0.08,0.07-0.17,0.15-0.26,0.21
		c-0.04,0.03-0.09,0.02-0.11-0.02c-0.03-0.03-0.03-0.08,0.01-0.12c0.01-0.01,0.03-0.03,0.04-0.04c0.12-0.12,0.41-0.39,0.41-0.58
		C19.55,15.88,19.12,15.15,18.97,14.9L18.97,14.9L18.97,14.9z M21.37,17.84c0.67,0,1.43,0.42,2.02,0.74
		c0.11,0.06,0.22,0.12,0.32,0.17c1.01,0.52,2.01,0.98,3.09,0.79c0.01,0,0.87-0.18,1.3-0.86c0.26-0.42,0.31-0.96,0.15-1.58
		c-0.02-0.07-0.04-0.13-0.05-0.19c-0.18-0.65-0.28-1.02,0.04-1.83c-0.37-0.02-0.59,0.1-0.71,0.21c-0.24,0.22-0.35,0.6-0.34,1.13
		c0,0.04-0.03,0.08-0.08,0.09c-0.33,0.03-0.61,0.19-0.74,0.42c-0.13,0.22-0.14,0.5-0.02,0.85c0.16-0.22,0.44-0.53,0.8-0.45
		c0.22,0.05,0.39,0.22,0.44,0.46c0.06,0.26-0.02,0.55-0.21,0.71c-0.46,0.38-1.14,0.22-1.57-0.09c-0.5-0.37-1.01-0.83-1.53-1.43
		c-0.09-0.1-0.18-0.21-0.27-0.31c-0.33-0.38-0.67-0.78-1.08-1.1c-0.64-0.49-1.4-0.57-1.92-0.56c-0.36,0.01-1.07,0.11-1.55,0.4
		c0.15,0.3,0.28,0.66,0.28,0.93c0,0.05-0.01,0.1-0.03,0.14c0.35-0.2,0.76-0.06,1,0.2c0.05,0.06,0.11,0.14,0.17,0.23
		c0.09,0.14,0.19,0.29,0.32,0.41c0.02,0.02,0.03,0.04,0.03,0.07c0,0.03-0.01,0.05-0.04,0.06c0,0-0.22,0.16-0.53,0.39
		c-0.04,0.03-0.09,0.06-0.13,0.09c-0.01,0-0.02,0.01-0.02,0.02l0.27,0.05C20.95,17.88,21.15,17.84,21.37,17.84L21.37,17.84
		L21.37,17.84z M26.29,19.75c-0.92,0-1.79-0.4-2.66-0.85c-0.1-0.05-0.21-0.11-0.32-0.17c-0.7-0.39-1.76-0.96-2.45-0.6
		c0,0.09-0.02,0.18-0.05,0.26c-0.11,0.29-0.46,0.59-0.63,0.72c-0.39,0.28-0.86,0.56-1.46,0.56c-0.09,0-0.18-0.01-0.26-0.04
		c-0.11-0.04-0.21-0.11-0.28-0.2c-0.03-0.04-0.06-0.1-0.09-0.15c-0.02-0.05-0.03-0.09-0.04-0.14c-0.25-0.07-0.4-0.24-0.4-0.44
		c0-0.15,0.11-0.28,0.21-0.4c0.17-0.2,0.24-0.3,0.07-0.46c-0.02-0.02-0.04-0.03-0.06-0.05c-0.03-0.02-0.06-0.05-0.09-0.08
		c-0.21-0.22-0.09-0.65-0.02-0.91l0.01-0.03c0.07-0.27,0.18-0.56,0.34-0.86c0.21-0.42,0.46-0.89,0.82-1.19
		c0.02-0.02,0.04-0.02,0.07-0.02c0.02,0,0.05,0.02,0.06,0.04c0.01,0.02,0.16,0.24,0.31,0.53c0.63-0.37,1.52-0.42,1.62-0.42
		c0.55-0.02,1.35,0.07,2.03,0.59c0.42,0.33,0.77,0.73,1.11,1.12c0.09,0.1,0.18,0.21,0.27,0.31c0.52,0.58,1.01,1.04,1.5,1.4
		c0.38,0.27,0.96,0.42,1.36,0.1c0.14-0.12,0.21-0.33,0.16-0.53c-0.04-0.18-0.16-0.3-0.32-0.33c-0.28-0.06-0.52,0.22-0.71,0.51
		c-0.02,0.03-0.05,0.04-0.08,0.04c-0.03,0-0.06-0.02-0.07-0.05c-0.19-0.46-0.2-0.85-0.02-1.15c0.15-0.25,0.44-0.43,0.79-0.49
		C27,15.8,27.13,15.4,27.4,15.16c0.16-0.15,0.46-0.31,0.96-0.24c0.03,0,0.05,0.02,0.06,0.04c0.01,0.02,0.01,0.05,0,0.08
		c-0.34,0.83-0.26,1.14-0.07,1.82c0.02,0.06,0.03,0.13,0.05,0.19c0.18,0.67,0.12,1.25-0.17,1.72c-0.47,0.75-1.37,0.93-1.41,0.94
		C26.65,19.74,26.47,19.75,26.29,19.75L26.29,19.75L26.29,19.75z"/>
	<path class="st2" d="M18.4,19.17c-0.08,0-0.16,0-0.25-0.01c-0.05-0.01-0.08-0.05-0.07-0.09c0.01-0.05,0.05-0.08,0.09-0.07
		c0.39,0.05,0.95-0.01,1.44-0.51c0.03-0.03,0.09-0.03,0.12,0c0.03,0.03,0.03,0.09,0,0.12C19.37,18.97,18.91,19.17,18.4,19.17
		L18.4,19.17L18.4,19.17z"/>
	<path class="st2" d="M25.22,17.89c-0.01,0-0.02,0-0.03-0.01c-0.04-0.02-0.06-0.06-0.04-0.1c0.09-0.2,0.1-0.37,0.04-0.5
		c-0.09-0.17-0.29-0.22-0.29-0.22c-0.02-0.01-0.04-0.02-0.05-0.04c-0.01-0.02-0.01-0.04,0-0.07c0.03-0.08,0.1-0.31,0.05-0.43
		c-0.04-0.1-0.23-0.14-0.29-0.15c-0.02,0-0.05-0.02-0.06-0.04c-0.01-0.02-0.01-0.05,0-0.07c0.03-0.06,0.08-0.25,0.02-0.35
		c-0.13-0.19-0.46-0.1-0.46-0.1c-0.03,0.01-0.06,0-0.08-0.02c-0.02-0.02-0.03-0.05-0.02-0.08c0,0,0.1-0.3-0.09-0.49
		c-0.22-0.22-0.68-0.09-0.69-0.09c-0.03,0.01-0.06,0-0.08-0.02c-0.02-0.02-0.03-0.05-0.02-0.08c0-0.01,0.08-0.26-0.09-0.36
		c-0.26-0.17-0.57,0.05-0.57,0.05c-0.02,0.02-0.05,0.02-0.08,0.01c-0.03-0.01-0.04-0.04-0.05-0.06c0-0.01-0.04-0.34-0.33-0.38
		c-0.31-0.04-0.63,0.28-0.64,0.28c-0.02,0.02-0.04,0.02-0.06,0.02c-0.02,0-0.04-0.01-0.06-0.03c0,0-0.22-0.28-0.49-0.27
		c-0.26,0.01-0.37,0.28-0.37,0.28c-0.01,0.03-0.03,0.04-0.06,0.05c-0.03,0.01-0.05,0-0.07-0.02c0,0-0.26-0.25-0.53-0.15
		c-0.34,0.12-0.43,0.54-0.46,0.67l0,0c-0.01,0.04-0.05,0.07-0.1,0.06c-0.04-0.01-0.07-0.05-0.06-0.1l0,0
		c0.04-0.16,0.15-0.63,0.56-0.78c0.26-0.09,0.5,0.03,0.62,0.12c0.07-0.11,0.21-0.28,0.46-0.29c0.26-0.01,0.47,0.17,0.57,0.27
		c0.12-0.1,0.41-0.31,0.71-0.27c0.26,0.03,0.39,0.24,0.44,0.4c0.14-0.07,0.4-0.15,0.65,0c0.17,0.11,0.19,0.29,0.18,0.42
		c0.18-0.03,0.52-0.05,0.72,0.16c0.17,0.17,0.17,0.39,0.15,0.53c0.15-0.02,0.38-0.01,0.51,0.19c0.08,0.13,0.06,0.3,0.03,0.41
		c0.11,0.03,0.27,0.09,0.32,0.24c0.05,0.14,0,0.35-0.03,0.46c0.09,0.04,0.24,0.12,0.32,0.28c0.09,0.17,0.08,0.39-0.03,0.64
		C25.28,17.87,25.25,17.89,25.22,17.89L25.22,17.89L25.22,17.89z"/>
	<path class="st2" d="M24.82,18.99C24.82,18.99,24.81,18.99,24.82,18.99c-0.05-0.01-0.08-0.05-0.08-0.09
		c0.04-0.3-0.14-0.36-0.3-0.41c-0.04-0.01-0.08-0.02-0.11-0.04c-0.08-0.05-0.09-0.15-0.09-0.26c0-0.11-0.01-0.24-0.09-0.34
		c-0.15-0.16-0.44-0.06-0.44-0.06c-0.03,0.01-0.06,0.01-0.08-0.01c-0.02-0.02-0.03-0.05-0.03-0.07c0,0,0.05-0.32-0.14-0.48
		c-0.16-0.13-0.45-0.1-0.56-0.08c-0.02,0.01-0.05,0-0.07-0.02c-0.02-0.02-0.03-0.04-0.03-0.07c0.01-0.2-0.06-0.37-0.22-0.47
		c-0.13-0.08-0.29-0.1-0.41-0.03c-0.33,0.18-0.46,0.19-0.81-0.06c-0.11-0.08-0.22-0.1-0.32-0.08c-0.13,0.03-0.26,0.15-0.35,0.34
		c-0.02,0.04-0.07,0.06-0.11,0.04c-0.04-0.02-0.06-0.07-0.04-0.11c0.11-0.22,0.27-0.37,0.45-0.42c0.15-0.04,0.31,0,0.46,0.1
		c0.29,0.21,0.36,0.2,0.65,0.05c0.17-0.09,0.39-0.08,0.57,0.04c0.17,0.11,0.28,0.3,0.29,0.51c0.14-0.02,0.42-0.03,0.6,0.13
		c0.17,0.14,0.2,0.37,0.2,0.51c0.13-0.03,0.36-0.03,0.5,0.13c0.12,0.14,0.13,0.31,0.13,0.44c0,0.04,0,0.11,0.01,0.13
		c0.01,0.01,0.04,0.02,0.07,0.03c0.15,0.05,0.46,0.14,0.41,0.58C24.89,18.96,24.86,18.99,24.82,18.99L24.82,18.99L24.82,18.99z"/>
	<path class="st2" d="M16.94,18.16c0,0.04-0.01,0.07-0.03,0.1c-0.02,0.03-0.05,0.06-0.09,0.08c-0.07,0.06-0.17,0.13-0.17,0.27v0.36
		h-2.84h0h-2.84v-0.36c0-0.14-0.09-0.21-0.17-0.27c-0.04-0.03-0.07-0.05-0.09-0.08c-0.02-0.03-0.03-0.06-0.03-0.1v0v0
		c0-0.04,0.01-0.07,0.03-0.1c0.02-0.03,0.05-0.06,0.09-0.08c0.07-0.06,0.17-0.13,0.17-0.27v-1.63c0-0.14-0.09-0.21-0.17-0.27
		c-0.04-0.03-0.07-0.05-0.09-0.08c-0.02-0.03-0.03-0.06-0.03-0.1v0v0c0-0.04,0.01-0.07,0.03-0.1c0.02-0.03,0.05-0.06,0.09-0.08
		c0.07-0.06,0.17-0.13,0.17-0.27v-0.38c0,0,0.01,0,0.01,0c0.15,0,0.29,0,0.43-0.01v3.75h2.07c0.04,0.15,0.17,0.26,0.33,0.26
		c0.16,0,0.29-0.11,0.33-0.26h2.07v-3.75c0.14,0.01,0.28,0.01,0.43,0.01c0,0,0.01,0,0.01,0v0.38c0,0.14,0.09,0.21,0.17,0.27
		c0.04,0.03,0.07,0.05,0.09,0.08c0.02,0.03,0.03,0.06,0.03,0.1l0,0l0,0c0,0.04-0.01,0.07-0.03,0.1c-0.02,0.03-0.05,0.06-0.09,0.08
		c-0.07,0.06-0.17,0.13-0.17,0.27v1.63c0,0.14,0.09,0.21,0.17,0.27c0.04,0.03,0.07,0.05,0.09,0.08
		C16.93,18.09,16.94,18.12,16.94,18.16L16.94,18.16L16.94,18.16L16.94,18.16L16.94,18.16z M11.85,14.68c0.1-0.04,0.18-0.1,0.27-0.15
		c0.18-0.11,0.35-0.22,0.62-0.22c0.22,0,0.44,0.09,0.63,0.16c0.13,0.05,0.25,0.1,0.36,0.12v3.28c-0.01,0-0.01,0-0.02,0
		c-0.16,0.01-0.38,0.09-0.64,0.17c-0.08,0.03-0.17,0.05-0.25,0.08c-0.25,0.08-0.51,0.08-0.75,0.08c-0.16,0-0.32,0-0.46,0.02v-3.47
		C11.69,14.74,11.77,14.71,11.85,14.68L11.85,14.68L11.85,14.68z M14.26,14.47c0.19-0.08,0.41-0.16,0.63-0.16
		c0.27,0,0.44,0.11,0.62,0.22c0.08,0.05,0.17,0.11,0.27,0.15c0.08,0.03,0.16,0.06,0.25,0.07v3.47c-0.14-0.02-0.3-0.02-0.46-0.02
		c-0.25,0-0.51,0-0.75-0.08c-0.08-0.03-0.17-0.05-0.25-0.08c-0.26-0.08-0.48-0.15-0.64-0.17c0,0-0.01,0-0.01,0v-3.29
		C14.02,14.57,14.14,14.53,14.26,14.47L14.26,14.47L14.26,14.47z M16.93,17.84c-0.07-0.05-0.1-0.08-0.1-0.14v-1.63
		c0-0.05,0.04-0.08,0.1-0.14c0.04-0.03,0.09-0.07,0.13-0.12c0.04-0.06,0.06-0.12,0.06-0.19c0-0.07-0.02-0.14-0.06-0.19
		c-0.03-0.05-0.08-0.09-0.13-0.12c-0.07-0.05-0.1-0.08-0.1-0.14V14.6h-0.13l0,0c-0.3,0-0.63,0-0.84-0.09
		c-0.08-0.04-0.16-0.08-0.24-0.14c-0.19-0.12-0.4-0.25-0.72-0.25c-0.26,0-0.49,0.09-0.7,0.18c-0.14,0.06-0.27,0.11-0.36,0.11h-0.02
		h0h-0.02c-0.09,0-0.22-0.05-0.36-0.11c-0.21-0.08-0.44-0.18-0.7-0.18c-0.32,0-0.53,0.13-0.72,0.25c-0.08,0.05-0.16,0.1-0.24,0.14
		c-0.21,0.09-0.54,0.09-0.84,0.09l0,0h-0.13v0.57c0,0.05-0.04,0.08-0.1,0.14c-0.04,0.03-0.09,0.07-0.13,0.12
		c-0.04,0.06-0.06,0.12-0.06,0.19c0,0.07,0.02,0.14,0.06,0.19c0.03,0.05,0.08,0.09,0.13,0.12c0.07,0.05,0.1,0.08,0.1,0.14v1.63
		c0,0.05-0.04,0.08-0.1,0.14c-0.04,0.03-0.09,0.07-0.13,0.12c-0.04,0.06-0.06,0.12-0.06,0.19c0,0.07,0.02,0.14,0.06,0.19
		c0.03,0.05,0.08,0.09,0.13,0.12c0.07,0.05,0.1,0.08,0.1,0.14v0.55l0,0.01h0v0l3.01,0l3.01,0v0h0l0-0.01v-0.55
		c0-0.05,0.04-0.08,0.1-0.14c0.04-0.03,0.09-0.07,0.13-0.12c0.04-0.06,0.06-0.12,0.06-0.19c0-0.07-0.02-0.14-0.06-0.19
		C17.02,17.91,16.97,17.87,16.93,17.84L16.93,17.84L16.93,17.84z"/>
	<path class="st2" d="M35.49,18.16c0,0.04-0.01,0.07-0.03,0.1c-0.02,0.03-0.05,0.06-0.09,0.08c-0.07,0.06-0.17,0.13-0.17,0.27v0.36
		h-2.84h0h-2.84v-0.36c0-0.14-0.09-0.21-0.17-0.27c-0.04-0.03-0.07-0.05-0.09-0.08c-0.02-0.03-0.03-0.06-0.03-0.1l0,0l0,0
		c0-0.04,0.01-0.07,0.03-0.1c0.02-0.03,0.05-0.06,0.09-0.08c0.07-0.06,0.17-0.13,0.17-0.27v-1.63c0-0.14-0.09-0.21-0.17-0.27
		c-0.04-0.03-0.07-0.05-0.09-0.08c-0.02-0.03-0.03-0.06-0.03-0.1l0,0l0,0c0-0.04,0.01-0.07,0.03-0.1c0.02-0.03,0.05-0.06,0.09-0.08
		c0.07-0.06,0.17-0.13,0.17-0.27v-0.38c0,0,0.01,0,0.01,0c0.15,0,0.29,0,0.43-0.01v3.75h2.07c0.04,0.15,0.17,0.26,0.33,0.26
		c0.16,0,0.3-0.11,0.33-0.26h2.07v-3.75c0.14,0.01,0.28,0.01,0.43,0.01c0,0,0.01,0,0.01,0v0.38c0,0.14,0.09,0.21,0.17,0.27
		c0.04,0.03,0.07,0.05,0.09,0.08c0.02,0.03,0.03,0.06,0.03,0.1v0v0c0,0.04-0.01,0.07-0.03,0.1c-0.02,0.03-0.05,0.06-0.09,0.08
		c-0.07,0.06-0.17,0.13-0.17,0.27v1.63c0,0.14,0.09,0.21,0.17,0.27c0.04,0.03,0.07,0.05,0.09,0.08
		C35.48,18.09,35.49,18.12,35.49,18.16L35.49,18.16L35.49,18.16L35.49,18.16L35.49,18.16z M30.4,14.68c0.1-0.04,0.18-0.1,0.27-0.15
		c0.18-0.11,0.35-0.22,0.62-0.22c0.22,0,0.44,0.09,0.63,0.16c0.13,0.05,0.25,0.1,0.36,0.12v3.28c-0.01,0-0.01,0-0.02,0
		c-0.16,0.01-0.38,0.09-0.64,0.17c-0.08,0.03-0.17,0.05-0.25,0.08c-0.25,0.08-0.51,0.08-0.75,0.08c-0.16,0-0.32,0-0.46,0.02v-3.47
		C30.23,14.74,30.32,14.71,30.4,14.68L30.4,14.68L30.4,14.68z M32.81,14.47c0.19-0.08,0.41-0.16,0.63-0.16
		c0.27,0,0.44,0.11,0.62,0.22c0.08,0.05,0.17,0.11,0.27,0.15c0.08,0.03,0.16,0.06,0.25,0.07v3.47c-0.14-0.02-0.3-0.02-0.46-0.02
		c-0.25,0-0.51,0-0.75-0.08c-0.08-0.03-0.17-0.05-0.25-0.08c-0.26-0.08-0.48-0.15-0.64-0.17c0,0-0.01,0-0.01,0v-3.29
		C32.57,14.57,32.68,14.53,32.81,14.47L32.81,14.47L32.81,14.47z M35.47,17.84c-0.07-0.05-0.1-0.08-0.1-0.14v-1.63
		c0-0.05,0.04-0.08,0.1-0.14c0.04-0.03,0.09-0.07,0.13-0.12c0.04-0.06,0.06-0.12,0.06-0.19c0-0.07-0.02-0.14-0.06-0.19
		c-0.04-0.05-0.08-0.09-0.13-0.12c-0.07-0.05-0.1-0.08-0.1-0.14V14.6h-0.13l0,0c-0.3,0-0.63,0-0.84-0.09
		c-0.08-0.04-0.16-0.08-0.24-0.14c-0.19-0.12-0.4-0.25-0.72-0.25c-0.26,0-0.49,0.09-0.7,0.18c-0.14,0.06-0.27,0.11-0.36,0.11h-0.02
		h0h-0.02c-0.09,0-0.22-0.05-0.36-0.11c-0.21-0.08-0.44-0.18-0.7-0.18c-0.32,0-0.53,0.13-0.72,0.25c-0.08,0.05-0.16,0.1-0.24,0.14
		c-0.21,0.09-0.54,0.09-0.84,0.09l0,0h-0.13v0.57c0,0.05-0.04,0.08-0.1,0.14c-0.04,0.03-0.09,0.07-0.13,0.12
		c-0.04,0.06-0.06,0.12-0.06,0.19c0,0.07,0.02,0.14,0.06,0.19c0.03,0.05,0.08,0.09,0.13,0.12c0.07,0.05,0.1,0.08,0.1,0.14v1.63
		c0,0.05-0.04,0.08-0.1,0.14c-0.04,0.03-0.09,0.07-0.13,0.12c-0.04,0.06-0.06,0.12-0.06,0.19c0,0.07,0.02,0.14,0.06,0.19
		c0.03,0.05,0.08,0.09,0.13,0.12c0.07,0.05,0.1,0.08,0.1,0.14v0.55l0,0.01h0v0l3.01,0l3.01,0v0h0l0-0.01v-0.55
		c0-0.05,0.04-0.08,0.1-0.14c0.04-0.03,0.09-0.07,0.13-0.12c0.04-0.06,0.06-0.12,0.06-0.19c0-0.07-0.02-0.14-0.06-0.19
		C35.56,17.91,35.52,17.87,35.47,17.84L35.47,17.84L35.47,17.84z"/>
	<path class="st2" d="M34.76,32.68L23.09,21.42L11.41,32.68c-0.91-1.91-1.51-4.12-1.5-6.63c0-0.07,0-2.35,0-4.99h26.35
		c0,2.65,0,4.92,0,4.99C36.27,28.56,35.67,30.77,34.76,32.68L34.76,32.68L34.76,32.68z M31.04,33.85c-0.91,0.91-2.38,0.91-3.28,0
		c-0.91-0.91-0.91-2.38,0-3.28c0.91-0.91,2.38-0.91,3.28,0C31.94,31.48,31.94,32.95,31.04,33.85L31.04,33.85L31.04,33.85z
		 M20.77,26.45c0-1.28,1.04-2.32,2.32-2.32c1.28,0,2.32,1.04,2.32,2.32c0,1.28-1.04,2.32-2.32,2.32
		C21.81,28.77,20.77,27.73,20.77,26.45L20.77,26.45L20.77,26.45z M30.34,38.56c-3.13,2.91-6.38,4.37-7.25,4.59
		c-0.87-0.22-4.12-1.68-7.25-4.59c-0.08-0.07-0.15-0.14-0.23-0.22l7.48-7.94l7.48,7.94C30.49,38.42,30.42,38.49,30.34,38.56
		L30.34,38.56L30.34,38.56z M15.14,33.85c-0.91-0.91-0.91-2.38,0-3.28c0.91-0.91,2.38-0.91,3.28,0c0.91,0.91,0.91,2.38,0,3.28
		C17.52,34.76,16.05,34.76,15.14,33.85L15.14,33.85L15.14,33.85z M36.26,12.91c0,0.86,0,4.53,0,7.77H9.91c0-3.24,0-6.9,0-7.77H36.26
		L36.26,12.91L36.26,12.91z M36.64,12.54H9.54c0,0,0,13.33,0,13.51c-0.02,5.92,3.28,10.22,6.04,12.79c3.02,2.8,6.41,4.46,7.48,4.69
		l0.03,0.01l0.03-0.01c1.07-0.23,4.46-1.9,7.48-4.69c2.77-2.57,6.06-6.87,6.04-12.79C36.64,25.87,36.64,12.54,36.64,12.54
		L36.64,12.54L36.64,12.54z"/>
	<path class="st0" d="M47.96,39.44l0.7,2.2h1.52l-2.52-7.75h-1.81l-2.48,7.75h1.46l0.67-2.2H47.96L47.96,39.44z M45.73,38.37
		l0.6-1.91c0.14-0.46,0.25-1,0.37-1.45h0.02c0.11,0.45,0.24,0.98,0.39,1.45l0.61,1.91H45.73L45.73,38.37z M52.53,41.64l0.07-0.84
		h0.02c0.4,0.69,1.05,0.96,1.77,0.96c1.27,0,2.54-1,2.54-3.01c0.01-1.7-0.97-2.84-2.33-2.84c-0.84,0-1.45,0.36-1.79,0.9h-0.02v-3.33
		h-1.41v6.59c0,0.57-0.02,1.19-0.05,1.57H52.53L52.53,41.64z M52.79,38.42c0-0.14,0.02-0.26,0.05-0.37
		c0.16-0.62,0.68-1.04,1.25-1.04c0.94,0,1.42,0.8,1.42,1.79c0,1.13-0.54,1.84-1.43,1.84c-0.61,0-1.1-0.43-1.25-0.99
		c-0.02-0.1-0.03-0.22-0.03-0.33V38.42L52.79,38.42z M58.31,41.64h1.41v-2.9c0-0.16,0.02-0.31,0.05-0.44
		c0.13-0.63,0.59-1.07,1.26-1.07c0.17,0,0.3,0.02,0.41,0.05v-1.33c-0.12-0.02-0.2-0.03-0.33-0.03c-0.6,0-1.25,0.4-1.53,1.19h-0.05
		l-0.05-1.07h-1.23c0.03,0.51,0.05,1.05,0.05,1.81V41.64L58.31,41.64z M67,41.64c-0.06-0.35-0.08-0.84-0.08-1.35v-2.02
		c0-1.22-0.52-2.36-2.31-2.36c-0.89,0-1.61,0.24-2.02,0.49l0.28,0.92c0.38-0.24,0.95-0.41,1.51-0.41c0.99,0,1.14,0.61,1.14,0.98
		v0.09c-2.07-0.01-3.32,0.7-3.32,2.11c0,0.85,0.63,1.67,1.76,1.67c0.73,0,1.31-0.31,1.66-0.75h0.03l0.09,0.62H67L67,41.64z
		 M65.54,39.67c0,0.09-0.01,0.21-0.05,0.31c-0.13,0.4-0.54,0.77-1.1,0.77c-0.45,0-0.81-0.25-0.81-0.81c0-0.85,0.96-1.07,1.96-1.05
		V39.67L65.54,39.67z M68.58,41.64h1.38v-3.31c0-0.16,0.02-0.32,0.08-0.46c0.13-0.39,0.48-0.81,1.01-0.81
		c0.66,0,0.97,0.55,0.97,1.33v3.24h1.38v-3.36c0-0.16,0.03-0.33,0.07-0.47c0.15-0.4,0.51-0.75,0.99-0.75c0.68,0,1,0.55,1,1.48v3.09
		h1.38v-3.3c0-1.79-0.94-2.43-1.87-2.43c-0.46,0-0.82,0.11-1.13,0.33c-0.26,0.16-0.49,0.39-0.69,0.7h-0.02
		c-0.24-0.62-0.82-1.03-1.55-1.03c-0.94,0-1.45,0.52-1.73,0.95h-0.03l-0.06-0.83h-1.22c0.03,0.48,0.05,1.02,0.05,1.67V41.64
		L68.58,41.64z M78.15,41.36c0.41,0.23,1.02,0.39,1.7,0.39c1.48,0,2.28-0.74,2.28-1.75c-0.01-0.83-0.48-1.35-1.49-1.71
		c-0.71-0.25-0.98-0.43-0.98-0.78c0-0.35,0.28-0.59,0.78-0.59c0.49,0,0.94,0.18,1.18,0.32l0.28-1c-0.32-0.17-0.86-0.33-1.48-0.33
		c-1.3,0-2.12,0.77-2.12,1.76c-0.01,0.66,0.45,1.25,1.54,1.63c0.69,0.24,0.92,0.44,0.92,0.82c0,0.37-0.28,0.62-0.9,0.62
		c-0.51,0-1.11-0.21-1.44-0.4L78.15,41.36L78.15,41.36z M86.04,35.91c-1.69,0-2.9,1.13-2.9,2.97c0,1.79,1.22,2.89,2.81,2.89
		c1.43,0,2.87-0.92,2.87-2.98C88.82,37.08,87.71,35.91,86.04,35.91L86.04,35.91z M86.01,36.95c0.97,0,1.36,1,1.36,1.88
		c0,1.13-0.56,1.92-1.37,1.92c-0.86,0-1.39-0.82-1.39-1.9C84.6,37.91,85,36.95,86.01,36.95L86.01,36.95z M90.17,41.64h1.42v-3.29
		c0-0.16,0.01-0.33,0.06-0.46c0.15-0.43,0.54-0.83,1.1-0.83c0.77,0,1.07,0.61,1.07,1.41v3.16h1.41v-3.32c0-1.77-1.01-2.4-1.99-2.4
		c-0.93,0-1.54,0.53-1.78,0.96h-0.03l-0.07-0.84h-1.24c0.03,0.48,0.05,1.02,0.05,1.67V41.64L90.17,41.64z M104.9,40.29
		c-0.37,0.17-0.97,0.29-1.54,0.29c-1.7,0-2.7-1.09-2.7-2.8c0-1.86,1.14-2.85,2.71-2.85c0.64,0,1.15,0.14,1.52,0.3l0.31-1.13
		c-0.29-0.15-0.96-0.34-1.89-0.34c-2.37,0-4.14,1.54-4.14,4.09c0,2.36,1.49,3.9,3.95,3.9c0.93,0,1.67-0.17,2-0.34L104.9,40.29
		L104.9,40.29z M110.89,41.64c-0.06-0.35-0.08-0.84-0.08-1.35v-2.02c0-1.22-0.52-2.36-2.31-2.36c-0.89,0-1.61,0.24-2.02,0.49
		l0.28,0.92c0.38-0.24,0.95-0.41,1.51-0.41c0.99,0,1.14,0.61,1.14,0.98v0.09c-2.07-0.01-3.32,0.7-3.32,2.11
		c0,0.85,0.63,1.67,1.76,1.67c0.72,0,1.31-0.31,1.66-0.75h0.03l0.09,0.62H110.89L110.89,41.64z M109.43,39.67
		c0,0.09-0.01,0.21-0.05,0.31c-0.13,0.4-0.54,0.77-1.11,0.77c-0.45,0-0.81-0.25-0.81-0.81c0-0.85,0.96-1.07,1.96-1.05V39.67
		L109.43,39.67z M112.47,41.64h1.43v-3.29c0-0.16,0.01-0.33,0.06-0.46c0.15-0.43,0.54-0.83,1.1-0.83c0.77,0,1.07,0.61,1.07,1.41
		v3.16h1.41v-3.32c0-1.77-1.01-2.4-1.99-2.4c-0.93,0-1.54,0.53-1.78,0.96h-0.03l-0.07-0.84h-1.24c0.04,0.48,0.05,1.02,0.05,1.67
		V41.64L112.47,41.64z M123.16,40.42c-0.28,0.11-0.62,0.22-1.11,0.22c-0.97,0-1.71-0.66-1.71-1.81c-0.01-1.02,0.63-1.82,1.71-1.82
		c0.51,0,0.84,0.11,1.07,0.22l0.25-1.06c-0.32-0.15-0.85-0.26-1.37-0.26c-1.97,0-3.11,1.31-3.11,2.99c0,1.74,1.14,2.85,2.89,2.85
		c0.7,0,1.29-0.15,1.59-0.29L123.16,40.42L123.16,40.42z M129.24,39.23c0.02-0.13,0.05-0.33,0.05-0.6c0-1.23-0.6-2.73-2.41-2.73
		c-1.79,0-2.74,1.46-2.74,3.01c0,1.71,1.07,2.83,2.89,2.83c0.81,0,1.47-0.15,1.95-0.34l-0.21-0.98c-0.43,0.16-0.9,0.25-1.55,0.25
		c-0.9,0-1.69-0.44-1.73-1.45H129.24L129.24,39.23z M125.49,38.25c0.06-0.58,0.43-1.37,1.3-1.37c0.94,0,1.17,0.85,1.16,1.37H125.49
		L125.49,38.25z M130.65,41.64h1.41v-2.9c0-0.16,0.02-0.31,0.05-0.44c0.13-0.63,0.59-1.07,1.26-1.07c0.17,0,0.3,0.02,0.41,0.05
		v-1.33c-0.12-0.02-0.2-0.03-0.33-0.03c-0.6,0-1.25,0.4-1.53,1.19h-0.04l-0.05-1.07h-1.23c0.04,0.51,0.05,1.05,0.05,1.81V41.64
		L130.65,41.64z M142.89,40.29c-0.37,0.17-0.97,0.29-1.54,0.29c-1.7,0-2.7-1.09-2.7-2.8c0-1.86,1.14-2.85,2.71-2.85
		c0.64,0,1.15,0.14,1.52,0.3l0.31-1.13c-0.29-0.15-0.96-0.34-1.89-0.34c-2.37,0-4.14,1.54-4.14,4.09c0,2.36,1.49,3.9,3.95,3.9
		c0.93,0,1.67-0.17,2-0.34L142.89,40.29L142.89,40.29z M149.07,39.23c0.02-0.13,0.05-0.33,0.05-0.6c0-1.23-0.6-2.73-2.41-2.73
		c-1.79,0-2.74,1.46-2.74,3.01c0,1.71,1.07,2.83,2.89,2.83c0.81,0,1.47-0.15,1.96-0.34l-0.21-0.98c-0.43,0.16-0.9,0.25-1.55,0.25
		c-0.9,0-1.69-0.44-1.73-1.45H149.07L149.07,39.23z M145.32,38.25c0.06-0.58,0.43-1.37,1.3-1.37c0.94,0,1.17,0.85,1.16,1.37H145.32
		L145.32,38.25z M150.47,41.64h1.43v-3.29c0-0.16,0.01-0.33,0.06-0.46c0.15-0.43,0.54-0.83,1.1-0.83c0.77,0,1.07,0.61,1.07,1.41
		v3.16h1.41v-3.32c0-1.77-1.01-2.4-1.99-2.4c-0.93,0-1.54,0.53-1.78,0.96h-0.04l-0.07-0.84h-1.24c0.03,0.48,0.04,1.02,0.04,1.67
		V41.64L150.47,41.64z M157.4,34.77v1.26h-0.8v1.06h0.8v2.63c0,0.74,0.14,1.24,0.44,1.56c0.26,0.29,0.7,0.46,1.22,0.46
		c0.45,0,0.82-0.06,1.02-0.14l-0.02-1.08c-0.13,0.03-0.31,0.07-0.55,0.07c-0.54,0-0.72-0.36-0.72-1.04V37.1h1.35v-1.06h-1.35v-1.6
		L157.4,34.77L157.4,34.77z M166.04,39.23c0.02-0.13,0.05-0.33,0.05-0.6c0-1.23-0.6-2.73-2.41-2.73c-1.79,0-2.74,1.46-2.74,3.01
		c0,1.71,1.07,2.83,2.89,2.83c0.8,0,1.47-0.15,1.95-0.34l-0.21-0.98c-0.42,0.16-0.9,0.25-1.55,0.25c-0.9,0-1.69-0.44-1.73-1.45
		H166.04L166.04,39.23z M162.29,38.25c0.06-0.58,0.43-1.37,1.3-1.37c0.94,0,1.17,0.85,1.16,1.37H162.29L162.29,38.25z M167.45,41.64
		h1.41v-2.9c0-0.16,0.02-0.31,0.05-0.44c0.13-0.63,0.59-1.07,1.26-1.07c0.17,0,0.3,0.02,0.41,0.05v-1.33
		c-0.11-0.02-0.2-0.03-0.33-0.03c-0.6,0-1.25,0.4-1.53,1.19h-0.05l-0.05-1.07h-1.23c0.03,0.51,0.05,1.05,0.05,1.81V41.64
		L167.45,41.64z"/>
</g>
</svg>
