<svg xmlns="http://www.w3.org/2000/svg" viewBox="0 0 310.5 63.35"><defs><style>.cls-1{fill:#fff;}.cls-2{fill:#0a2972;}.cls-3{fill:#b20838;}</style></defs><g id="Layer_2" data-name="Layer 2"><g id="Layer_1-2" data-name="Layer 1"><path class="cls-1" d="M26.91,63.35l-1-.47A47.07,47.07,0,0,1,6.24,46.59,34.92,34.92,0,0,1,0,27.58V1.3H53.8V27.58a35,35,0,0,1-6.23,19A47,47,0,0,1,27.93,62.88Z"/><path class="cls-2" d="M26.91,61.8l-.44-.2a45.52,45.52,0,0,1-19-15.79,33.43,33.43,0,0,1-6-18.23V2.71h51V27.58a33.49,33.49,0,0,1-6,18.23,45.55,45.55,0,0,1-19,15.79Z"/><rect class="cls-3" x="2.46" y="3.6" width="48.9" height="15.86"/><path class="cls-2" d="M50.41,13V10a2.34,2.34,0,0,0,.36-1.18,1.75,1.75,0,0,0-1-1.54H49.1a3.08,3.08,0,0,0-2.32-.92A4.8,4.8,0,0,0,45,6.71a4.44,4.44,0,0,0-1.7-.35,3.3,3.3,0,0,0-2.38.92h-.73a1.83,1.83,0,0,0-1,1.51A2.27,2.27,0,0,0,39.57,10v3a1.75,1.75,0,0,0-.47,1.12,1.65,1.65,0,0,0,.47,1.13v1.34H50.4V15.19a1.49,1.49,0,0,0,.48-1.07A1.82,1.82,0,0,0,50.41,13m-13-2.14a1.31,1.31,0,0,1-.23-.77,5.23,5.23,0,0,1,1.13-2.32v0c0-.16-.66-.51-1.41-.51-1,0-2.19.61-2.15,3.15a2.3,2.3,0,0,0-2.11,2.24A4.61,4.61,0,0,0,33,14.26s0,.06.08.06c.24,0,.87-.89,1.4-1.22a1.69,1.69,0,0,1,.87-.3.74.74,0,0,1,.76.67A2.19,2.19,0,0,1,33.9,15.3,2.32,2.32,0,0,1,32,14.18a2.36,2.36,0,0,0,.32-1.12,1.61,1.61,0,0,0-.64-1.29,2.11,2.11,0,0,0,.1-.61.87.87,0,0,0-.83-1S31,8.54,29.64,8.57a1,1,0,0,0-1-.85l-.38,0a1.18,1.18,0,0,0-1.14-1,1.8,1.8,0,0,0-.57.1A1.42,1.42,0,0,0,25.27,6a1.93,1.93,0,0,0-1,.39s-.64-1.31-2-.21a1.53,1.53,0,0,0-1.06-.42,2.63,2.63,0,0,0-1.84,1s-.1-.35-.23-.35-.08,0-.12.14c-.18.41-.06.58-.27,1C18.6,7.67,16,10.74,16,13.16a2.45,2.45,0,0,0,.39,1.4.46.46,0,0,1,.11.22c0,.06-.05.09-.17.16a1.24,1.24,0,0,0-.63.88.47.47,0,0,0,0,.16c.3,1,.84.61,1.57,1.22a1.71,1.71,0,0,0,1.08.32c1.05,0,2.59-.52,4.24-2.32a2.72,2.72,0,0,1,2-1c2.43,0,5.08,3.57,8.92,3.44a4.65,4.65,0,0,0,4.77-4.33,3.82,3.82,0,0,0-.93-2.44M14.28,15.19v1.37H3.45V15.22A1.65,1.65,0,0,1,3,14.09,1.75,1.75,0,0,1,3.45,13V10A2.24,2.24,0,0,1,3.1,8.82a1.88,1.88,0,0,1,1-1.54H4.8a3.23,3.23,0,0,1,2.35-.92,4.48,4.48,0,0,1,1.72.35,5,5,0,0,1,1.81-.37,3.06,3.06,0,0,1,2.3.92h.68A1.85,1.85,0,0,1,14.29,10v3a1.49,1.49,0,0,1,0,2.21"/><path class="cls-1" d="M48,41a31.17,31.17,0,0,0,3.37-13.36V20.3H2.46v7.31A31.18,31.18,0,0,0,5.84,41L26.91,21.11ZM40,51.79,26.91,39.22,13.8,51.79a47.9,47.9,0,0,0,13.11,8.86A47.9,47.9,0,0,0,40,51.79M11.48,41.62A3.62,3.62,0,1,0,15.1,38a3.62,3.62,0,0,0-3.62,3.62M38.73,38a3.62,3.62,0,1,0,3.62,3.62A3.62,3.62,0,0,0,38.73,38M26.92,35.13a3.62,3.62,0,1,1,3.62-3.62,3.62,3.62,0,0,1-3.62,3.62M48.66,14.07V7.7a2.55,2.55,0,0,0-1.92-.76,4.64,4.64,0,0,0-1.48.25v6.75a6,6,0,0,1,1.37-.14,7.84,7.84,0,0,1,2,.27M49.87,9.8a1.79,1.79,0,0,0,.38-1,1.2,1.2,0,0,0-.62-1h-.38v7H45.92l-.86.36-.83-.35H40.75v-7h-.39a1.3,1.3,0,0,0-.61,1,1.64,1.64,0,0,0,.37,1v3.4a1.35,1.35,0,0,0-.47.9,1.1,1.1,0,0,0,.47.87v1h9.75V15a1.18,1.18,0,0,0,.48-.86,1.26,1.26,0,0,0-.48-.91ZM8.59,13.94V7.19a4.71,4.71,0,0,0-1.48-.25,2.55,2.55,0,0,0-1.92.76v6.37a9.18,9.18,0,0,1,2.16-.27,5.24,5.24,0,0,1,1.24.14m3.95.13V7.7a2.55,2.55,0,0,0-1.92-.76,4.79,4.79,0,0,0-1.48.25v6.75a5.55,5.55,0,0,1,1.27-.14,8.87,8.87,0,0,1,2.13.27m7.71-6a11.46,11.46,0,0,1,3.12-.41A7.75,7.75,0,0,1,31.18,13c.09.27.19.33.26.33s.15-.23.16-.48A.8.8,0,0,0,31,12a1.4,1.4,0,0,0,0-.38,1,1,0,0,0-.92-1,1.67,1.67,0,0,0,0-.27,1.06,1.06,0,0,0-1.09-1.21l-.27,0a.7.7,0,0,0-.77-.76,1.76,1.76,0,0,0-.42.06s-.07-1-1-1a2.08,2.08,0,0,0-.86.22A1,1,0,0,0,24.87,7a1.87,1.87,0,0,0-1,.36,1.32,1.32,0,0,0-1-.64,1.45,1.45,0,0,0-1.08.67,1.26,1.26,0,0,0-1-.69,1.89,1.89,0,0,0-1.24.63,4.5,4.5,0,0,1,.7.78M13.75,9.8a1.31,1.31,0,0,0-.24-2h-.38v7H9.8l-.86.36-.83-.35H4.63v-7h-.4a1.31,1.31,0,0,0-.6,1A1.64,1.64,0,0,0,4,9.8v3.4a1.35,1.35,0,0,0-.48.91A1.11,1.11,0,0,0,4,15v1h9.75V15a1.06,1.06,0,0,0,0-1.77Zm31,4.14V7.19a4.61,4.61,0,0,0-1.47-.25,2.55,2.55,0,0,0-1.93.76v6.37a8.23,8.23,0,0,1,2.06-.27,6.23,6.23,0,0,1,1.34.14m-8.15-3.78h0c0,1.07,1.25,1.45,1.25,3.1a4.11,4.11,0,0,1-4.22,3.81c-4.88,0-5.61-3.43-8.75-3.43a3.91,3.91,0,0,0-2,.55L22.48,14a1.93,1.93,0,0,0,.89-1.5,2.29,2.29,0,0,0-.91-1.59,1.1,1.1,0,0,1,.69-.35c.52,0,.54.7,1.14.7.32,0,.56-.22.84-.22s.37.21.64.63c.41.64,1.48,0,1.66.79s.24.55.67.61.49.84.49.84l.46-.17a1.45,1.45,0,0,0-.35-.88c-.26-.34-.77.11-.89-.73a.71.71,0,0,0-.77-.66,3.76,3.76,0,0,0-.44,0c-.24,0-.33-.29-.44-.57s-.29-.58-.63-.58-.68.33-1.08.33-.52-.93-1.37-.93a1.89,1.89,0,0,0-1.25.76,1.7,1.7,0,0,0-.44-.05,2.86,2.86,0,0,0-.77.11,2.92,2.92,0,0,0,.08-.71,3.89,3.89,0,0,0-.21-1.3,9.43,9.43,0,0,1,2.63-.36A10.67,10.67,0,0,1,27,8.88c3.52,1.37,4.22,7,6.72,7s2.88-1.89,2.88-2.33a1.2,1.2,0,0,0-1.34-1.22c-1.13,0-1.88,1.37-2,1.37t0,0a4.15,4.15,0,0,1-.1-.8,2,2,0,0,1,2.26-2,5.31,5.31,0,0,1,0-.67c0-2,1-2.46,1.62-2.46.34,0,.6.13.6.24a.06.06,0,0,1,0,0,3.8,3.8,0,0,0-.93,2.18M18.73,13.27a.49.49,0,0,0-.35.47,1.31,1.31,0,0,0,.18.55,0,0,0,0,0,.05,0c.2,0,.9-.63,1.05-.79,0,0,0,0,0,0s-.95-.23-.95-.23m3,.85.72.47a5.84,5.84,0,0,1-4,2.46c-.5,0-1.11-.11-1.11-.22s0,0,.08-.07a7,7,0,0,0,3-1.69,1.13,1.13,0,0,0,.29-.58.23.23,0,0,0-.22-.24.43.43,0,0,0-.38.25,6,6,0,0,1-2.56,1.66,2.53,2.53,0,0,1-.67.11.71.71,0,0,1-.7-.35.5.5,0,0,1,0-.16c0-.37.88-.43.88-1s-.54-.84-.54-1.85c0-1.94,2.28-4.73,2.57-5a2.28,2.28,0,0,1,1.06,2,4.07,4.07,0,0,1-.65,2l.15.06a3.32,3.32,0,0,1,1.89-1.22.67.67,0,0,1,.71.68,1.19,1.19,0,0,1,0,.34,1.05,1.05,0,0,1,.25,0,.68.68,0,0,1,.66.76c0,.88-1.34,1.59-1.34,1.59"/><path class="cls-1" d="M304.3,52.54c0-1.5,0-2.57-.09-3.57h2.43l.09,2.11h.09a3.31,3.31,0,0,1,3-2.36,2.73,2.73,0,0,1,.66.07v2.63a4.35,4.35,0,0,0-.82-.09,2.46,2.46,0,0,0-2.49,2.11,4.43,4.43,0,0,0-.1.87V60H304.3Zm-4.88.79a2.37,2.37,0,0,0-2.29-2.7,2.73,2.73,0,0,0-2.56,2.7Zm-4.85,2c.06,2,1.63,2.86,3.4,2.86a8.31,8.31,0,0,0,3.07-.5l.4,1.93a10.32,10.32,0,0,1-3.86.68c-3.58,0-5.69-2.2-5.69-5.58,0-3.07,1.86-6,5.4-6s4.77,3,4.77,5.38a7.52,7.52,0,0,1-.09,1.18ZM288,45.82V49h2.66v2.09H288v4.88c0,1.34.36,2,1.43,2a4.54,4.54,0,0,0,1.09-.13l0,2.13a6.14,6.14,0,0,1-2,.27,3.25,3.25,0,0,1-2.41-.9,4.43,4.43,0,0,1-.86-3.09v-5.2h-1.59V49h1.59V46.48Zm-16.07,6.44c0-1.27,0-2.33-.09-3.29h2.45l.14,1.66h.07A4,4,0,0,1,278,48.72c1.93,0,3.93,1.25,3.93,4.75V60h-2.79V53.78c0-1.58-.59-2.79-2.11-2.79a2.35,2.35,0,0,0-2.18,1.64,2.87,2.87,0,0,0-.12.91V60h-2.81ZM267,53.33a2.38,2.38,0,0,0-2.29-2.7,2.74,2.74,0,0,0-2.57,2.7Zm-4.86,2c.07,2,1.64,2.86,3.41,2.86a8.25,8.25,0,0,0,3.06-.5l.41,1.93a10.32,10.32,0,0,1-3.86.68c-3.58,0-5.7-2.2-5.7-5.58,0-3.07,1.87-6,5.41-6s4.76,3,4.76,5.38a6.46,6.46,0,0,1-.09,1.18Zm-3.88,4.29a9.69,9.69,0,0,1-3.95.68c-4.86,0-7.81-3-7.81-7.69,0-5,3.5-8.08,8.18-8.08a8.74,8.74,0,0,1,3.72.68l-.61,2.22a7.61,7.61,0,0,0-3-.59c-3.11,0-5.36,2-5.36,5.63,0,3.36,2,5.52,5.34,5.52a7.85,7.85,0,0,0,3-.57Zm-23.85-7c0-1.5,0-2.57-.09-3.57h2.42l.09,2.11h.1a3.3,3.3,0,0,1,3-2.36,2.62,2.62,0,0,1,.66.07v2.63a4.14,4.14,0,0,0-.81-.09,2.47,2.47,0,0,0-2.5,2.11,4.48,4.48,0,0,0-.09.87V60h-2.79Zm-4.88.79a2.38,2.38,0,0,0-2.3-2.7,2.73,2.73,0,0,0-2.56,2.7Zm-4.86,2c.07,2,1.63,2.86,3.4,2.86a8.27,8.27,0,0,0,3.07-.5l.41,1.93a10.36,10.36,0,0,1-3.86.68c-3.59,0-5.7-2.2-5.7-5.58,0-3.07,1.86-6,5.4-6s4.77,3,4.77,5.38a6.46,6.46,0,0,1-.09,1.18Zm-3.84,4.41a8.12,8.12,0,0,1-3.13.56,5.31,5.31,0,0,1-5.7-5.63c0-3.31,2.27-5.9,6.15-5.9a7.1,7.1,0,0,1,2.71.52l-.5,2.09a5,5,0,0,0-2.11-.43,3.3,3.3,0,0,0-3.39,3.59,3.28,3.28,0,0,0,3.39,3.56,5.44,5.44,0,0,0,2.2-.43Zm-21.11-7.43c0-1.27,0-2.33-.09-3.29h2.45l.14,1.66h.07a4,4,0,0,1,3.52-1.91c1.93,0,3.92,1.25,3.92,4.75V60H207V53.78c0-1.58-.59-2.79-2.11-2.79a2.36,2.36,0,0,0-2.18,1.64,2.88,2.88,0,0,0-.11.91V60h-2.82Zm-5.67,2.36c-2,0-3.86.39-3.86,2.07a1.47,1.47,0,0,0,1.59,1.59A2.27,2.27,0,0,0,194,56.76a2,2,0,0,0,.09-.61Zm.36,5.41-.18-1.23h-.07a4.11,4.11,0,0,1-3.26,1.48A3.29,3.29,0,0,1,187.43,57c0-2.8,2.48-4.2,6.56-4.18v-.18c0-.73-.29-1.93-2.25-1.93a5.94,5.94,0,0,0-3,.81l-.54-1.81a7.9,7.9,0,0,1,4-1c3.54,0,4.56,2.25,4.56,4.66v4a18.23,18.23,0,0,0,.16,2.66Zm-8.28-.46a9.69,9.69,0,0,1-3.95.68c-4.86,0-7.81-3-7.81-7.69,0-5,3.5-8.08,8.17-8.08a8.67,8.67,0,0,1,3.72.68l-.61,2.22a7.53,7.53,0,0,0-3-.59c-3.11,0-5.35,2-5.35,5.63,0,3.36,2,5.52,5.33,5.52a7.77,7.77,0,0,0,3-.57Zm-28.76-7.31c0-1.27,0-2.33-.09-3.29h2.45l.14,1.66h.06a4,4,0,0,1,3.52-1.91c1.93,0,3.93,1.25,3.93,4.75V60H164.6V53.78c0-1.58-.59-2.79-2.11-2.79a2.34,2.34,0,0,0-2.18,1.64,2.87,2.87,0,0,0-.12.91V60h-2.81Zm-10.62,2.25c0,2.14,1,3.74,2.74,3.74s2.71-1.56,2.71-3.78c0-1.73-.78-3.7-2.68-3.7s-2.77,1.9-2.77,3.74m8.33-.11a5.48,5.48,0,0,1-5.68,5.88,5.35,5.35,0,0,1-5.54-5.7,5.47,5.47,0,0,1,5.73-5.86,5.31,5.31,0,0,1,5.49,5.68M135,57.46a6.16,6.16,0,0,0,2.83.79c1.23,0,1.78-.49,1.78-1.22s-.46-1.13-1.82-1.61c-2.16-.75-3.07-1.93-3-3.22,0-2,1.61-3.48,4.17-3.48a6.47,6.47,0,0,1,2.93.66l-.54,2a4.88,4.88,0,0,0-2.34-.64c-1,0-1.54.48-1.54,1.16s.52,1,1.93,1.54c2,.73,2.92,1.75,2.95,3.38,0,2-1.57,3.45-4.5,3.45a7.07,7.07,0,0,1-3.36-.77Zm-19.12-5.2c0-1.27,0-2.33-.09-3.29h2.41l.11,1.64h.07a3.83,3.83,0,0,1,3.41-1.89,3.18,3.18,0,0,1,3.06,2.05h0a4.12,4.12,0,0,1,1.36-1.39,3.7,3.7,0,0,1,2.22-.66c1.84,0,3.7,1.25,3.7,4.79V60h-2.72V53.92c0-1.84-.64-2.93-2-2.93a2.13,2.13,0,0,0-1.95,1.48,3.87,3.87,0,0,0-.13.93V60h-2.73v-6.4c0-1.55-.61-2.64-1.9-2.64a2.18,2.18,0,0,0-2,1.59,2.27,2.27,0,0,0-.16.91V60h-2.73Zm-5.67,2.36c-2,0-3.86.39-3.86,2.07a1.47,1.47,0,0,0,1.59,1.59,2.27,2.27,0,0,0,2.18-1.52,2,2,0,0,0,.09-.61Zm.36,5.41-.18-1.23h-.07A4.1,4.1,0,0,1,107,60.28,3.29,3.29,0,0,1,103.56,57c0-2.8,2.48-4.2,6.56-4.18v-.18c0-.73-.29-1.93-2.24-1.93a5.94,5.94,0,0,0-3,.81l-.54-1.81a7.93,7.93,0,0,1,4-1c3.54,0,4.56,2.25,4.56,4.66v4a18.23,18.23,0,0,0,.16,2.66ZM96.46,52.54c0-1.5,0-2.57-.09-3.57H98.8l.09,2.11H99a3.3,3.3,0,0,1,3-2.36,2.73,2.73,0,0,1,.66.07v2.63a4.35,4.35,0,0,0-.82-.09,2.47,2.47,0,0,0-2.5,2.11,5.42,5.42,0,0,0-.09.87V60H96.46ZM86,55.46a3.42,3.42,0,0,0,.07.66,2.58,2.58,0,0,0,2.47,2c1.75,0,2.82-1.4,2.82-3.63,0-1.95-.93-3.54-2.79-3.54a2.62,2.62,0,0,0-2.48,2,3.83,3.83,0,0,0-.09.73ZM83.09,60c0-.75.09-2,.09-3.11v-13H86v6.58h0a4,4,0,0,1,3.54-1.77c2.7,0,4.63,2.25,4.61,5.61,0,4-2.52,6-5,6a3.82,3.82,0,0,1-3.5-1.91h0L85.47,60Zm-6.67-6.45-1.21-3.77c-.29-.93-.54-2-.77-2.86h0c-.23.89-.46,1.95-.73,2.86l-1.18,3.77ZM72,55.69,70.72,60H67.84l4.9-15.3H76.3l5,15.3h-3l-1.39-4.34ZM305.94,19.46c.15-3.84-2.47-5.42-4.68-5.42-2.91,0-4.63,2.17-4.83,5.42Zm-9.51.84c-.1,7.83,4.58,9.8,6.95,9.8s3.64-.83,6.15-3.64v1.28c-2.11,2.71-4.13,3.74-7.19,3.74-5.47,0-9.41-3.79-9.41-9.06S296.78,13,301.7,13c4,0,7.79,3.25,7.54,7.29ZM289,27.15c0,2.26.5,3,3,3v.84H282.6V30.1c2.36,0,3-.54,3-2.16V18.82a3.74,3.74,0,0,0-3.89-4c-1.72,0-3.25,1.08-5,3.4v8.52c0,2.66.35,3.35,3,3.35v.84h-9.21V30.1c2.31,0,2.91-.2,2.91-3.35V17c0-2.12-.55-2.56-2.91-2.56v-.84L275.9,13h.83v3.5c2.07-2.37,4.09-3.5,6.31-3.5A5.85,5.85,0,0,1,289,19.26ZM267,6.11a2.15,2.15,0,0,1-2.12,2.17,2.19,2.19,0,0,1-2.16-2.17A2.14,2.14,0,0,1,264.89,4,2.11,2.11,0,0,1,267,6.11m-.49,21.58c0,1.72.44,2.41,2.91,2.41v.84h-9.56V30.1c2.66,0,3.3-.34,3.3-2.41V17c0-2.42-.74-2.61-3.3-2.61v-.84l5.81-.54h.84Zm-28-21.58a2.15,2.15,0,0,1-2.12,2.17,2.19,2.19,0,0,1-2.17-2.17A2.15,2.15,0,0,1,236.37,4a2.11,2.11,0,0,1,2.12,2.12M238,27.69c0,1.72.45,2.41,2.91,2.41v.84h-9.56V30.1c2.66,0,3.31-.34,3.31-2.41V17c0-2.42-.74-2.61-3.31-2.61v-.84l5.82-.54H238ZM223.46,17a6.65,6.65,0,0,0-5.07-3c-3.15,0-5.32,2.86-5.32,7.1s1.92,9,7.63,9c2,0,2.76-.79,2.76-2.66Zm3.35,10.54c0,1.92.69,2.56,2.91,2.56v.84H219.57c-7.39,0-10.15-5-10.15-9.06,0-4.93,3.65-8.87,8.18-8.87a10.29,10.29,0,0,1,5.86,2.12V4.43c0-2.51-.59-3-2.31-3h-1V.59L226,0h.84Zm-23.45-8.08c.14-3.84-2.47-5.42-4.69-5.42-2.9,0-4.63,2.17-4.82,5.42Zm-9.51.84c-.1,7.83,4.58,9.8,6.94,9.8s3.65-.83,6.16-3.64v1.28c-2.12,2.71-4.14,3.74-7.19,3.74-5.47,0-9.41-3.79-9.41-9.06S194.19,13,199.12,13c4,0,7.78,3.25,7.54,7.29Zm-6.3-16.75c-2.42.05-3.35,1.72-3.16,4.38l1.43,17.4c.3,3.44.89,4.53,3.5,4.77v.84H179.17V30.1c2.32-.39,3.1-1.43,2.91-4.23L180.7,7.64h-.1l-9.66,23.3h-.74l-9.45-23.3h-.1L159.07,25c-.25,2.86.79,4.53,3.64,5.07v.84h-8.77V30.1c2.86-.39,3.31-2.07,3.6-5.17l1.73-19.41a5.61,5.61,0,0,0-3.7-2V2.71h7.14l9,22.22L180.9,2.71h6.65Zm-41.66,23.6c0,2.26.49,3,3,3v.84h-9.32V30.1c2.37,0,3-.54,3-2.16V18.82a3.74,3.74,0,0,0-3.89-4c-1.73,0-3.25,1.08-5,3.4v8.52c0,2.66.35,3.35,3,3.35v.84h-9.21V30.1c2.31,0,2.9-.2,2.9-3.35V17c0-2.12-.54-2.56-2.9-2.56v-.84l5.41-.54h.84v3.5c2.07-2.37,4.09-3.5,6.31-3.5a5.86,5.86,0,0,1,5.91,6.25Zm-22.19,0c0,2.26.49,3,3,3v.84h-9.31V30.1c2.37,0,3-.54,3-2.16V18.82a3.74,3.74,0,0,0-3.9-4c-1.72,0-3.25,1.08-5,3.4v8.52c0,2.66.34,3.35,3,3.35v.84h-9.22V30.1c2.32,0,2.91-.2,2.91-3.35V17c0-2.12-.54-2.56-2.91-2.56v-.84l5.42-.54h.84v3.5c2.07-2.37,4.09-3.5,6.3-3.5a5.86,5.86,0,0,1,5.92,6.25Zm-23-7.69C100.81,15.62,98.2,14,96,14c-2.91,0-4.63,2.17-4.83,5.42Zm-9.51.84c-.1,7.83,4.58,9.8,6.95,9.8s3.64-.83,6.16-3.64v1.28c-2.12,2.71-4.14,3.74-7.2,3.74-5.47,0-9.41-3.79-9.41-9.06S91.49,13,96.42,13c4,0,7.79,3.25,7.54,7.29ZM74,16.46a9.06,9.06,0,0,0,3.5.49c4.19,0,6.85-2.27,6.85-6.11,0-3-1.68-7-6.85-7H74Zm0,9.16c0,3.5.84,4.48,3.2,4.48v.84H67V30.1c2,0,3.21-.64,3.21-4.38V8c0-3.45-.84-4.48-3.21-4.48V2.71h10.3c7.79,0,10.94,4.14,10.94,8,0,4.68-3.55,7.29-10,7.29A33.56,33.56,0,0,1,74,17.74Zm184.2-6.45h-.84c-.74-3.16-3-5.18-5.86-5.18-3.45,0-5.87,3-5.87,7.25,0,4.77,3,8.76,6.56,8.76a8.3,8.3,0,0,0,6.5-3.64v1.28A9.13,9.13,0,0,1,251,31.48a8.39,8.39,0,0,1-8.77-8.82c0-5.37,4-9.65,9-9.65,2.61,0,4,1,4.93,1,.44,0,.88-.34,1.18-1h.84Z"/></g></g></svg>